<?xml version="1.0" encoding="UTF-8" standalone="no"?>
<!DOCTYPE svg PUBLIC "-//W3C//DTD SVG 1.1//EN" "http://www.w3.org/Graphics/SVG/1.1/DTD/svg11.dtd">
<svg width="100%" height="100%" viewBox="0 0 443 443" version="1.1" xmlns="http://www.w3.org/2000/svg" xmlns:xlink="http://www.w3.org/1999/xlink" xml:space="preserve" xmlns:serif="http://www.serif.com/" style="fill-rule:evenodd;clip-rule:evenodd;stroke-linecap:round;stroke-linejoin:round;stroke-miterlimit:1.5;">
    <g transform="matrix(1,0,0,1,13,-1126)">
        <g id="categoryVector" transform="matrix(4.16667,0,0,4.16667,0,1133.01)">
            <rect x="0" y="0" width="100" height="100" style="fill:none;"/>
            <g>
                <g transform="matrix(1,0,0,1,2.89037,-0.61049)">
                    <g>
                        <g transform="matrix(0.935944,0,0,0.935944,0.0736056,0.478079)">
                            <g transform="matrix(0.142818,0,0,0.204934,1.54015,-385.246)">
                                <path d="M200.201,1946.77C200.201,1929.94 180.592,1916.27 156.439,1916.27L68.915,1916.27C44.762,1916.27 25.153,1929.94 25.153,1946.77L25.153,2007.76C25.153,2024.6 44.762,2038.26 68.915,2038.26L156.439,2038.26C180.592,2038.26 200.201,2024.6 200.201,2007.76L200.201,1946.77Z" style="fill:none;stroke:#e57373;stroke-width:36.29px;"/>
                            </g>
                            <g transform="matrix(0.142818,0,0,0.204934,34.1628,-385.246)">
                                <path d="M200.201,1946.77C200.201,1929.94 180.592,1916.27 156.439,1916.27L68.915,1916.27C44.762,1916.27 25.153,1929.94 25.153,1946.77L25.153,2007.76C25.153,2024.6 44.762,2038.26 68.915,2038.26L156.439,2038.26C180.592,2038.26 200.201,2024.6 200.201,2007.76L200.201,1946.77Z" style="fill:none;stroke:#e57373;stroke-width:36.29px;"/>
                            </g>
                            <g transform="matrix(0.142818,0,0,0.204934,66.7855,-385.246)">
                                <path d="M200.201,1946.77C200.201,1929.94 180.592,1916.27 156.439,1916.27L68.915,1916.27C44.762,1916.27 25.153,1929.94 25.153,1946.77L25.153,2007.76C25.153,2024.6 44.762,2038.26 68.915,2038.26L156.439,2038.26C180.592,2038.26 200.201,2024.6 200.201,2007.76L200.201,1946.77Z" style="fill:none;stroke:#e57373;stroke-width:36.29px;"/>
                            </g>
                        </g>
                        <g transform="matrix(0.935944,0,0,0.935944,0.0736056,31.9258)">
                            <g transform="matrix(0.142818,0,0,0.204934,1.54015,-385.246)">
                                <path d="M200.201,1946.77C200.201,1929.94 180.592,1916.27 156.439,1916.27L68.915,1916.27C44.762,1916.27 25.153,1929.94 25.153,1946.77L25.153,2007.76C25.153,2024.6 44.762,2038.26 68.915,2038.26L156.439,2038.26C180.592,2038.26 200.201,2024.6 200.201,2007.76L200.201,1946.77Z" style="fill:none;stroke:#e57373;stroke-width:36.29px;"/>
                            </g>
                            <g transform="matrix(0.142818,0,0,0.204934,34.1628,-385.246)">
                                <path d="M200.201,1946.77C200.201,1929.94 180.592,1916.27 156.439,1916.27L68.915,1916.27C44.762,1916.27 25.153,1929.94 25.153,1946.77L25.153,2007.76C25.153,2024.6 44.762,2038.26 68.915,2038.26L156.439,2038.26C180.592,2038.26 200.201,2024.6 200.201,2007.76L200.201,1946.77Z" style="fill:none;stroke:#e57373;stroke-width:36.29px;"/>
                            </g>
                            <g transform="matrix(0.142818,0,0,0.204934,66.7855,-385.246)">
                                <path d="M200.201,1946.77C200.201,1929.94 180.592,1916.27 156.439,1916.27L68.915,1916.27C44.762,1916.27 25.153,1929.94 25.153,1946.77L25.153,2007.76C25.153,2024.6 44.762,2038.26 68.915,2038.26L156.439,2038.26C180.592,2038.26 200.201,2024.6 200.201,2007.76L200.201,1946.77Z" style="fill:none;stroke:#e57373;stroke-width:36.29px;"/>
                            </g>
                        </g>
                        <g transform="matrix(0.935944,0,0,0.935944,0.0736056,63.3735)">
                            <g transform="matrix(0.142818,0,0,0.204934,1.54015,-385.246)">
                                <path d="M200.201,1946.77C200.201,1929.94 180.592,1916.27 156.439,1916.27L68.915,1916.27C44.762,1916.27 25.153,1929.94 25.153,1946.77L25.153,2007.76C25.153,2024.6 44.762,2038.26 68.915,2038.26L156.439,2038.26C180.592,2038.26 200.201,2024.6 200.201,2007.76L200.201,1946.77Z" style="fill:none;stroke:#e57373;stroke-width:36.29px;"/>
                            </g>
                            <g transform="matrix(0.142818,0,0,0.204934,34.1628,-385.246)">
                                <path d="M200.201,1946.77C200.201,1929.94 180.592,1916.27 156.439,1916.27L68.915,1916.27C44.762,1916.27 25.153,1929.94 25.153,1946.77L25.153,2007.76C25.153,2024.6 44.762,2038.26 68.915,2038.26L156.439,2038.26C180.592,2038.26 200.201,2024.6 200.201,2007.76L200.201,1946.77Z" style="fill:none;stroke:#e57373;stroke-width:36.29px;"/>
                            </g>
                            <g transform="matrix(0.142818,0,0,0.204934,66.7855,-385.246)">
                                <path d="M200.201,1946.77C200.201,1929.94 180.592,1916.27 156.439,1916.27L68.915,1916.27C44.762,1916.27 25.153,1929.94 25.153,1946.77L25.153,2007.76C25.153,2024.6 44.762,2038.26 68.915,2038.26L156.439,2038.26C180.592,2038.26 200.201,2024.6 200.201,2007.76L200.201,1946.77Z" style="fill:none;stroke:#e57373;stroke-width:36.29px;"/>
                            </g>
                        </g>
                    </g>
                    <g>
                        <g transform="matrix(0.935944,0,0,0.935944,0.0736056,0.478079)">
                            <g transform="matrix(0.142818,0,0,0.204934,1.54015,-385.246)">
                                <path d="M200.201,1946.77C200.201,1929.94 180.592,1916.27 156.439,1916.27L68.915,1916.27C44.762,1916.27 25.153,1929.94 25.153,1946.77L25.153,2007.76C25.153,2024.6 44.762,2038.26 68.915,2038.26L156.439,2038.26C180.592,2038.26 200.201,2024.6 200.201,2007.76L200.201,1946.77Z" style="fill:none;stroke:#e57373;stroke-width:36.29px;"/>
                            </g>
                            <g transform="matrix(0.142818,0,0,0.204934,34.1628,-385.246)">
                                <path d="M200.201,1946.77C200.201,1929.94 180.592,1916.27 156.439,1916.27L68.915,1916.27C44.762,1916.27 25.153,1929.94 25.153,1946.77L25.153,2007.76C25.153,2024.6 44.762,2038.26 68.915,2038.26L156.439,2038.26C180.592,2038.26 200.201,2024.6 200.201,2007.76L200.201,1946.77Z" style="fill:none;stroke:#e57373;stroke-width:36.29px;"/>
                            </g>
                            <g transform="matrix(0.142818,0,0,0.204934,66.7855,-385.246)">
                                <path d="M200.201,1946.77C200.201,1929.94 180.592,1916.27 156.439,1916.27L68.915,1916.27C44.762,1916.27 25.153,1929.94 25.153,1946.77L25.153,2007.76C25.153,2024.6 44.762,2038.26 68.915,2038.26L156.439,2038.26C180.592,2038.26 200.201,2024.6 200.201,2007.76L200.201,1946.77Z" style="fill:none;stroke:#e57373;stroke-width:36.29px;"/>
                            </g>
                        </g>
                        <g transform="matrix(0.935944,0,0,0.935944,0.0736056,31.9258)">
                            <g transform="matrix(0.142818,0,0,0.204934,1.54015,-385.246)">
                                <path d="M200.201,1946.77C200.201,1929.94 180.592,1916.27 156.439,1916.27L68.915,1916.27C44.762,1916.27 25.153,1929.94 25.153,1946.77L25.153,2007.76C25.153,2024.6 44.762,2038.26 68.915,2038.26L156.439,2038.26C180.592,2038.26 200.201,2024.6 200.201,2007.76L200.201,1946.77Z" style="fill:none;stroke:#e57373;stroke-width:36.29px;"/>
                            </g>
                            <g transform="matrix(0.142818,0,0,0.204934,34.1628,-385.246)">
                                <path d="M200.201,1946.77C200.201,1929.94 180.592,1916.27 156.439,1916.27L68.915,1916.27C44.762,1916.27 25.153,1929.94 25.153,1946.77L25.153,2007.76C25.153,2024.6 44.762,2038.26 68.915,2038.26L156.439,2038.26C180.592,2038.26 200.201,2024.6 200.201,2007.76L200.201,1946.77Z" style="fill:none;stroke:#e57373;stroke-width:36.29px;"/>
                            </g>
                            <g transform="matrix(0.142818,0,0,0.204934,66.7855,-385.246)">
                                <path d="M200.201,1946.77C200.201,1929.94 180.592,1916.27 156.439,1916.27L68.915,1916.27C44.762,1916.27 25.153,1929.94 25.153,1946.77L25.153,2007.76C25.153,2024.6 44.762,2038.26 68.915,2038.26L156.439,2038.26C180.592,2038.26 200.201,2024.6 200.201,2007.76L200.201,1946.77Z" style="fill:none;stroke:#e57373;stroke-width:36.29px;"/>
                            </g>
                        </g>
                        <g transform="matrix(0.935944,0,0,0.935944,0.0736056,63.3735)">
                            <g transform="matrix(0.142818,0,0,0.204934,1.54015,-385.246)">
                                <path d="M200.201,1946.77C200.201,1929.94 180.592,1916.27 156.439,1916.27L68.915,1916.27C44.762,1916.27 25.153,1929.94 25.153,1946.77L25.153,2007.76C25.153,2024.6 44.762,2038.26 68.915,2038.26L156.439,2038.26C180.592,2038.26 200.201,2024.6 200.201,2007.76L200.201,1946.77Z" style="fill:none;stroke:#e57373;stroke-width:36.29px;"/>
                            </g>
                            <g transform="matrix(0.142818,0,0,0.204934,34.1628,-385.246)">
                                <path d="M200.201,1946.77C200.201,1929.94 180.592,1916.27 156.439,1916.27L68.915,1916.27C44.762,1916.27 25.153,1929.94 25.153,1946.77L25.153,2007.76C25.153,2024.6 44.762,2038.26 68.915,2038.26L156.439,2038.26C180.592,2038.26 200.201,2024.6 200.201,2007.76L200.201,1946.77Z" style="fill:none;stroke:#e57373;stroke-width:36.29px;"/>
                            </g>
                            <g transform="matrix(0.142818,0,0,0.204934,66.7855,-385.246)">
                                <path d="M200.201,1946.77C200.201,1929.94 180.592,1916.27 156.439,1916.27L68.915,1916.27C44.762,1916.27 25.153,1929.94 25.153,1946.77L25.153,2007.76C25.153,2024.6 44.762,2038.26 68.915,2038.26L156.439,2038.26C180.592,2038.26 200.201,2024.6 200.201,2007.76L200.201,1946.77Z" style="fill:none;stroke:#e57373;stroke-width:36.29px;"/>
                            </g>
                        </g>
                    </g>
                </g>
            </g>
        </g>
    </g>
</svg>
