<?xml version="1.0" encoding="UTF-8" standalone="no"?>
<!DOCTYPE svg PUBLIC "-//W3C//DTD SVG 1.1//EN" "http://www.w3.org/Graphics/SVG/1.1/DTD/svg11.dtd">
<svg width="100%" height="100%" viewBox="0 0 443 443" version="1.1" xmlns="http://www.w3.org/2000/svg" xmlns:xlink="http://www.w3.org/1999/xlink" xml:space="preserve" xmlns:serif="http://www.serif.com/" style="fill-rule:evenodd;clip-rule:evenodd;stroke-linecap:round;stroke-linejoin:round;stroke-miterlimit:10;">
    <g transform="matrix(1,0,0,1,-2315,-1126)">
        <g id="commentVector" transform="matrix(4.16667,0,0,4.16667,2328.14,1133.01)">
            <rect x="0" y="0" width="100" height="100" style="fill:none;"/>
            <g id="commentVector1" serif:id="commentVector">
                <g transform="matrix(1,0,0,1,30.9541,30.2638)">
                    <g>
                        <path d="M0,40.12C-5.936,34.468 -10.885,25.158 -10.885,16.315C-10.885,-0.822 3.007,-14.713 20.144,-14.713C37.28,-14.713 51.172,-0.822 51.172,16.315C51.172,33.452 37.28,47.343 20.144,47.343C16.831,47.343 11.496,48.666 10.174,45.41C12.088,49.367 1.855,52.626 -5.178,54.28C-7.532,54.833 -9.377,52.257 -8.094,50.205L-1.007,38.872L-1.25,38.789" style="fill:none;fill-rule:nonzero;stroke:#e57373;stroke-width:6px;"/>
                    </g>
                </g>
                <g transform="matrix(1,0,0,1,30.9541,30.2638)">
                    <path d="M0,40.12C-5.936,34.468 -10.885,25.158 -10.885,16.315C-10.885,-0.822 3.007,-14.713 20.144,-14.713C37.28,-14.713 51.172,-0.822 51.172,16.315C51.172,33.452 37.28,47.343 20.144,47.343C16.831,47.343 11.496,48.666 10.174,45.41C12.088,49.367 1.855,52.626 -5.178,54.28C-7.532,54.833 -9.377,52.257 -8.094,50.205L-1.007,38.872L-1.25,38.789" style="fill:none;fill-rule:nonzero;stroke:#e57373;stroke-width:6px;"/>
                </g>
            </g>
        </g>
    </g>
</svg>
