<?xml version="1.0" encoding="UTF-8" standalone="no"?>
<!DOCTYPE svg PUBLIC "-//W3C//DTD SVG 1.1//EN" "http://www.w3.org/Graphics/SVG/1.1/DTD/svg11.dtd">
<svg width="100%" height="100%" viewBox="0 0 442 443" version="1.1" xmlns="http://www.w3.org/2000/svg" xmlns:xlink="http://www.w3.org/1999/xlink" xml:space="preserve" xmlns:serif="http://www.serif.com/" style="fill-rule:evenodd;clip-rule:evenodd;stroke-linecap:round;stroke-linejoin:round;stroke-miterlimit:10;">
    <g transform="matrix(1,0,0,1,-564,-1132)">
        <g id="dashbordVector" transform="matrix(4.16667,0,0,4.16667,576.709,1138.99)">
            <rect x="0" y="0" width="100" height="100" style="fill:none;"/>
            <clipPath id="_clip1">
                <rect x="0" y="0" width="100" height="100"/>
            </clipPath>
            <g clip-path="url(#_clip1)">
                <g>
                    <g transform="matrix(0.487086,0,0,0.524951,-4.88343,-987.968)">
                        <path d="M200.201,1946.77C200.201,1929.94 185.473,1916.27 167.333,1916.27L58.022,1916.27C39.881,1916.27 25.153,1929.94 25.153,1946.77L25.153,2007.76C25.153,2024.6 39.881,2038.26 58.022,2038.26L167.333,2038.26C185.473,2038.26 200.201,2024.6 200.201,2007.76L200.201,1946.77Z" style="fill:none;stroke:#e57373;stroke-width:11.85px;"/>
                    </g>
                    <g transform="matrix(0.487086,0,0,0.524951,-4.88343,-987.968)">
                        <path d="M200.201,1946.77C200.201,1929.94 185.473,1916.27 167.333,1916.27L58.022,1916.27C39.881,1916.27 25.153,1929.94 25.153,1946.77L25.153,2007.76C25.153,2024.6 39.881,2038.26 58.022,2038.26L167.333,2038.26C185.473,2038.26 200.201,2024.6 200.201,2007.76L200.201,1946.77Z" style="fill:none;stroke:#e57373;stroke-width:11.85px;"/>
                    </g>
                </g>
                <g transform="matrix(1,0,0,1,0.0766994,-0.0655035)">
                    <g transform="matrix(0.421096,0,0,0.393039,43.7061,46.5362)">
                        <g transform="matrix(0.151303,0,0,0.275231,-138.621,-534.793)">
                            <path d="M1225.18,2059.58C1225.18,2054.34 1217.96,2050.09 1209.07,2050.09L1160.74,2050.09C1151.84,2050.09 1144.62,2054.34 1144.62,2059.58L1144.62,2213.01C1144.62,2218.25 1151.84,2222.5 1160.74,2222.5L1209.07,2222.5C1217.96,2222.5 1225.18,2218.25 1225.18,2213.01L1225.18,2059.58Z" style="fill:none;stroke:#ff9d2f;stroke-width:16.9px;stroke-miterlimit:1.5;"/>
                        </g>
                        <g transform="matrix(0.151303,0,0,0.21742,-121.265,-406.308)">
                            <path d="M1225.18,2062.1C1225.18,2055.47 1217.96,2050.09 1209.07,2050.09L1160.74,2050.09C1151.84,2050.09 1144.62,2055.47 1144.62,2062.1L1144.62,2210.49C1144.62,2217.12 1151.84,2222.5 1160.74,2222.5L1209.07,2222.5C1217.96,2222.5 1225.18,2217.12 1225.18,2210.49L1225.18,2062.1Z" style="fill:none;stroke:#ff9d2f;stroke-width:19.9px;stroke-miterlimit:1.5;"/>
                        </g>
                        <g transform="matrix(0.151303,0,0,0.25207,-103.909,-483.319)">
                            <path d="M1225.18,2060.45C1225.18,2054.73 1217.96,2050.09 1209.07,2050.09L1160.74,2050.09C1151.84,2050.09 1144.62,2054.73 1144.62,2060.45L1144.62,2212.14C1144.62,2217.86 1151.84,2222.5 1160.74,2222.5L1209.07,2222.5C1217.96,2222.5 1225.18,2217.86 1225.18,2212.14L1225.18,2060.45Z" style="fill:none;stroke:#ff9d2f;stroke-width:18.01px;stroke-miterlimit:1.5;"/>
                        </g>
                        <g transform="matrix(0.151303,0,0,0.206613,-155.977,-382.29)">
                            <path d="M1225.18,2062.73C1225.18,2055.75 1217.96,2050.09 1209.07,2050.09L1160.74,2050.09C1151.84,2050.09 1144.62,2055.75 1144.62,2062.73L1144.62,2209.86C1144.62,2216.84 1151.84,2222.5 1160.74,2222.5L1209.07,2222.5C1217.96,2222.5 1225.18,2216.84 1225.18,2209.86L1225.18,2062.73Z" style="fill:none;stroke:#ff9d2f;stroke-width:20.55px;stroke-miterlimit:1.5;"/>
                        </g>
                        <g transform="matrix(0,-0.12576,-0.12576,0,23.302,25.9504)">
                            <circle cx="-27.794" cy="0" r="27.794" style="fill:none;stroke:#ff9d2f;stroke-width:29.28px;stroke-linecap:butt;stroke-linejoin:miter;"/>
                        </g>
                        <g transform="matrix(0,-0.12576,-0.12576,0,40.6582,14.0634)">
                            <circle cx="-27.794" cy="0" r="27.794" style="fill:none;stroke:#ff9d2f;stroke-width:29.28px;stroke-linecap:butt;stroke-linejoin:miter;"/>
                        </g>
                        <g transform="matrix(0,-0.12576,-0.12576,0,58.0143,24.046)">
                            <circle cx="-27.794" cy="0" r="27.794" style="fill:none;stroke:#ff9d2f;stroke-width:29.28px;stroke-linecap:butt;stroke-linejoin:miter;"/>
                        </g>
                        <g transform="matrix(0,-0.12576,-0.12576,0,75.3705,18.1279)">
                            <circle cx="-27.794" cy="0" r="27.794" style="fill:none;stroke:#ff9d2f;stroke-width:29.28px;stroke-linecap:butt;stroke-linejoin:miter;"/>
                        </g>
                        <g transform="matrix(0.24,0,0,0.24,-119.394,-444.068)">
                            <path d="M594.899,1972.62L667.03,1921.43L739.744,1965.84L812.424,1939.2" style="fill:none;stroke:#e57373;stroke-width:15.34px;stroke-miterlimit:1.5;"/>
                        </g>
                    </g>
                    <g transform="matrix(0.592752,0,0,0.553258,14.0273,9.87557)">
                        <g transform="matrix(-0.344812,0.344812,0.344812,0.344812,21.7897,39.8961)">
                            <path d="M-31.808,-13.176L5.457,-13.176" style="fill:none;fill-rule:nonzero;stroke:#e57373;stroke-width:5.56px;stroke-linejoin:miter;"/>
                        </g>
                        <g transform="matrix(0.344812,0.344812,0.344812,-0.344812,34.7743,21.7888)">
                            <path d="M-5.434,-13.12L31.674,-13.12" style="fill:none;fill-rule:nonzero;stroke:#e57373;stroke-width:5.19px;stroke-linejoin:miter;"/>
                        </g>
                        <g transform="matrix(0,-0.487637,-0.487637,0,42.171,38.6116)">
                            <path d="M-28.455,28.455L28.455,28.455" style="fill:none;fill-rule:nonzero;stroke:#e57373;stroke-width:5.37px;stroke-linejoin:miter;"/>
                        </g>
                        <g transform="matrix(0.487637,0,0,0.487637,12.9902,56.861)">
                            <path d="M0,0L62.662,0" style="fill:none;fill-rule:nonzero;stroke:#ff9d2f;stroke-width:5.37px;stroke-linejoin:miter;"/>
                        </g>
                    </g>
                    <g transform="matrix(0.795758,0,0,0.772257,11.9466,3.77408)">
                        <g transform="matrix(0.195813,0,0,0.175982,43.9548,-310.96)">
                            <path d="M200.201,1946.77C200.201,1929.94 188.282,1916.27 173.602,1916.27L51.753,1916.27C37.072,1916.27 25.153,1929.94 25.153,1946.77L25.153,2007.76C25.153,2024.6 37.072,2038.26 51.753,2038.26L173.602,2038.26C188.282,2038.26 200.201,2024.6 200.201,2007.76L200.201,1946.77Z" style="fill:none;stroke:#ff9d2f;stroke-width:10.26px;stroke-miterlimit:1.5;"/>
                        </g>
                        <g transform="matrix(1,0,0,1,0.534093,-0.205611)">
                            <g transform="matrix(0.446636,0,0,0.446636,51.4909,32.2822)">
                                <path d="M0,0L62.662,0" style="fill:none;fill-rule:nonzero;stroke:#ff9d2f;stroke-width:4.28px;stroke-linejoin:miter;"/>
                            </g>
                            <g transform="matrix(0.446636,0,0,0.446636,51.4909,37.2075)">
                                <path d="M0,0L62.662,0" style="fill:none;fill-rule:nonzero;stroke:#ff9d2f;stroke-width:4.28px;stroke-linejoin:miter;"/>
                            </g>
                            <g transform="matrix(0.446636,0,0,0.446636,51.4909,42.1326)">
                                <path d="M0,0L62.662,0" style="fill:none;fill-rule:nonzero;stroke:#ff9d2f;stroke-width:4.28px;stroke-linejoin:miter;"/>
                            </g>
                            <g transform="matrix(0.446636,0,0,0.446636,76.6876,33.9302)">
                                <path d="M0,-7.307C0.499,-7.307 0.963,-7.214 1.393,-7.027C1.822,-6.84 2.197,-6.584 2.516,-6.259C2.834,-5.934 3.088,-5.549 3.275,-5.107C3.462,-4.664 3.556,-4.18 3.556,-3.654C3.556,-3.141 3.462,-2.663 3.275,-2.221C3.088,-1.779 2.834,-1.391 2.516,-1.059C2.197,-0.726 1.822,-0.467 1.393,-0.281C0.963,-0.093 0.499,0 0,0C-0.5,0 -0.968,-0.093 -1.404,-0.281C-1.84,-0.467 -2.218,-0.726 -2.537,-1.059C-2.856,-1.391 -3.105,-1.779 -3.286,-2.221C-3.466,-2.663 -3.556,-3.141 -3.556,-3.654C-3.556,-4.18 -3.466,-4.664 -3.286,-5.107C-3.105,-5.549 -2.856,-5.934 -2.537,-6.259C-2.218,-6.584 -1.84,-6.84 -1.404,-7.027C-0.968,-7.214 -0.5,-7.307 0,-7.307Z" style="fill:none;fill-rule:nonzero;stroke:#e57373;stroke-width:4.28px;stroke-linecap:butt;stroke-linejoin:miter;"/>
                            </g>
                            <g transform="matrix(0.446636,0,0,0.446636,60.9095,38.8415)">
                                <path d="M0,-7.308C0.499,-7.308 0.964,-7.214 1.393,-7.028C1.823,-6.841 2.197,-6.585 2.516,-6.259C2.835,-5.934 3.088,-5.55 3.275,-5.108C3.462,-4.664 3.556,-4.18 3.556,-3.655C3.556,-3.142 3.462,-2.664 3.275,-2.222C3.088,-1.779 2.835,-1.392 2.516,-1.059C2.197,-0.727 1.823,-0.468 1.393,-0.281C0.964,-0.094 0.499,0 0,0C-0.5,0 -0.967,-0.094 -1.404,-0.281C-1.84,-0.468 -2.218,-0.727 -2.537,-1.059C-2.856,-1.392 -3.105,-1.779 -3.286,-2.222C-3.466,-2.664 -3.556,-3.142 -3.556,-3.655C-3.556,-4.18 -3.466,-4.664 -3.286,-5.108C-3.105,-5.55 -2.856,-5.934 -2.537,-6.259C-2.218,-6.585 -1.84,-6.841 -1.404,-7.028C-0.967,-7.214 -0.5,-7.308 0,-7.308Z" style="fill:none;fill-rule:nonzero;stroke:#e57373;stroke-width:4.28px;stroke-linecap:butt;stroke-linejoin:miter;"/>
                            </g>
                            <g transform="matrix(0.446636,0,0,0.446636,70.4031,43.7523)">
                                <path d="M0,-7.307C0.499,-7.307 0.963,-7.214 1.393,-7.027C1.823,-6.84 2.197,-6.584 2.516,-6.259C2.834,-5.934 3.088,-5.55 3.275,-5.107C3.462,-4.664 3.556,-4.18 3.556,-3.654C3.556,-3.142 3.462,-2.664 3.275,-2.221C3.088,-1.779 2.834,-1.391 2.516,-1.059C2.197,-0.727 1.823,-0.467 1.393,-0.281C0.963,-0.094 0.499,0 0,0C-0.5,0 -0.967,-0.094 -1.404,-0.281C-1.84,-0.467 -2.218,-0.727 -2.537,-1.059C-2.856,-1.391 -3.105,-1.779 -3.286,-2.221C-3.466,-2.664 -3.556,-3.142 -3.556,-3.654C-3.556,-4.18 -3.466,-4.664 -3.286,-5.107C-3.105,-5.55 -2.856,-5.934 -2.537,-6.259C-2.218,-6.584 -1.84,-6.84 -1.404,-7.027C-0.967,-7.214 -0.5,-7.307 0,-7.307Z" style="fill:none;fill-rule:nonzero;stroke:#e57373;stroke-width:4.28px;stroke-linecap:butt;stroke-linejoin:miter;"/>
                            </g>
                        </g>
                    </g>
                    <g transform="matrix(0.888655,0,0,0.829445,4.50238,13.5852)">
                        <g transform="matrix(0.367446,0,0,0.367446,34.916,49.325)">
                            <path d="M0,26.182L-15.649,26.182C-20.225,26.182 -23.935,22.473 -23.935,17.897L-23.935,8.286C-23.935,3.709 -20.225,0 -15.649,0L0,0C4.575,0 8.285,3.709 8.285,8.286L8.285,17.897C8.285,22.473 4.575,26.182 0,26.182Z" style="fill:none;fill-rule:nonzero;stroke:#e57373;stroke-width:4.75px;stroke-linecap:butt;stroke-linejoin:miter;"/>
                        </g>
                        <g transform="matrix(0.367446,0,0,0.367446,44.0672,61.2661)">
                            <path d="M0,32.496C-0.033,32.59 -66.257,32.614 -66.28,32.496C-69.003,18.433 -51.443,-0.118 -33.14,-0.118C-14.837,-0.118 6.041,15.526 0,32.496Z" style="fill:none;fill-rule:nonzero;stroke:#e57373;stroke-width:4.75px;stroke-linejoin:miter;"/>
                        </g>
                        <g transform="matrix(0.367446,0,0,0.367446,29.374,54.1353)">
                            <path d="M0,0C0,-0.386 0.072,-0.745 0.217,-1.078C0.361,-1.41 0.559,-1.7 0.811,-1.946C1.062,-2.193 1.36,-2.389 1.703,-2.534C2.045,-2.679 2.419,-2.751 2.827,-2.751C3.223,-2.751 3.592,-2.679 3.935,-2.534C4.277,-2.389 4.577,-2.193 4.834,-1.946C5.091,-1.7 5.292,-1.41 5.437,-1.078C5.581,-0.745 5.653,-0.386 5.653,0C5.653,0.387 5.581,0.749 5.437,1.086C5.292,1.424 5.091,1.717 4.834,1.963C4.577,2.21 4.277,2.402 3.935,2.542C3.592,2.682 3.223,2.751 2.827,2.751C2.419,2.751 2.045,2.682 1.703,2.542C1.36,2.402 1.062,2.21 0.811,1.963C0.559,1.717 0.361,1.424 0.217,1.086C0.072,0.749 0,0.387 0,0" style="fill:#ff9d2f;fill-rule:nonzero;stroke:#ff9d2f;stroke-width:1.58px;stroke-linecap:butt;stroke-miterlimit:2;"/>
                        </g>
                        <g transform="matrix(0.367446,0,0,0.367446,32.6303,54.1353)">
                            <path d="M0,0C0,-0.386 0.072,-0.745 0.217,-1.078C0.361,-1.41 0.56,-1.7 0.811,-1.946C1.063,-2.193 1.36,-2.389 1.703,-2.534C2.045,-2.679 2.42,-2.751 2.827,-2.751C3.223,-2.751 3.592,-2.679 3.935,-2.534C4.277,-2.389 4.577,-2.193 4.834,-1.946C5.092,-1.7 5.292,-1.41 5.437,-1.078C5.581,-0.745 5.653,-0.386 5.653,0C5.653,0.387 5.581,0.749 5.437,1.086C5.292,1.424 5.092,1.717 4.834,1.963C4.577,2.21 4.277,2.402 3.935,2.542C3.592,2.682 3.223,2.751 2.827,2.751C2.42,2.751 2.045,2.682 1.703,2.542C1.36,2.402 1.063,2.21 0.811,1.963C0.56,1.717 0.361,1.424 0.217,1.086C0.072,0.749 0,0.387 0,0" style="fill:#ff9d2f;fill-rule:nonzero;stroke:#ff9d2f;stroke-width:1.58px;stroke-linecap:butt;stroke-miterlimit:2;"/>
                        </g>
                    </g>
                </g>
            </g>
        </g>
    </g>
</svg>
