<?xml version="1.0" encoding="UTF-8" standalone="no"?>
<!DOCTYPE svg PUBLIC "-//W3C//DTD SVG 1.1//EN" "http://www.w3.org/Graphics/SVG/1.1/DTD/svg11.dtd">
<svg width="100%" height="100%" viewBox="0 0 442 442" version="1.1" xmlns="http://www.w3.org/2000/svg" xmlns:xlink="http://www.w3.org/1999/xlink" xml:space="preserve" xmlns:serif="http://www.serif.com/" style="fill-rule:evenodd;clip-rule:evenodd;stroke-linecap:round;stroke-linejoin:round;stroke-miterlimit:10;">
    <g transform="matrix(1,0,0,1,-564,-1710)">
        <g id="informationVector" transform="matrix(4.16667,0,0,4.16667,576.709,1716.55)">
            <rect x="0" y="0" width="100" height="100" style="fill:none;"/>
            <g id="informationVector1" serif:id="informationVector">
                <g transform="matrix(0,-1,-1,0,49.8213,16.1567)">
                    <g>
                        <circle cx="-33.958" cy="0" r="33.958" style="fill:none;stroke:#e57373;stroke-width:6px;"/>
                    </g>
                </g>
                <g transform="matrix(0,-1,-1,0,49.8213,16.1567)">
                    <circle cx="-33.958" cy="0" r="33.958" style="fill:none;stroke:#e57373;stroke-width:6px;"/>
                </g>
                <g transform="matrix(1,0,0,1,0,0.23)">
                    <path d="M45.151,41.233L54.491,41.233L54.491,73.446L45.151,73.446L45.151,41.233ZM45.63,35.245C44.552,34.248 44.014,33.01 44.014,31.533C44.014,30.057 44.552,28.819 45.63,27.821C46.708,26.823 48.104,26.324 49.821,26.324C51.537,26.324 52.935,26.803 54.013,27.761C55.09,28.719 55.629,29.916 55.629,31.353C55.629,32.91 55.09,34.197 54.013,35.215C52.935,36.233 51.537,36.742 49.821,36.742C48.104,36.742 46.708,36.244 45.63,35.245" style="fill:#ff9d2f;fill-rule:nonzero;"/>
                </g>
            </g>
        </g>
    </g>
</svg>
