<?xml version="1.0" encoding="UTF-8" standalone="no"?>
<!DOCTYPE svg PUBLIC "-//W3C//DTD SVG 1.1//EN" "http://www.w3.org/Graphics/SVG/1.1/DTD/svg11.dtd">
<svg width="100%" height="100%" viewBox="0 0 418 417" version="1.1" xmlns="http://www.w3.org/2000/svg" xmlns:xlink="http://www.w3.org/1999/xlink" xml:space="preserve" xmlns:serif="http://www.serif.com/" style="fill-rule:evenodd;clip-rule:evenodd;stroke-linejoin:round;stroke-miterlimit:2;">
    <g transform="matrix(1,0,0,1,-2359,-2881)">
        <g id="initialLogo" transform="matrix(4.16667,0,0,4.16667,2359.84,2881.17)">
            <rect x="0" y="0" width="100" height="100" style="fill:none;"/>
            <clipPath id="_clip1">
                <rect x="0" y="0" width="100" height="100"/>
            </clipPath>
            <g clip-path="url(#_clip1)">
                <g id="saveButton">
                </g>
                <g transform="matrix(1,0,0,1,0.757709,-1.8519)">
                    <g transform="matrix(0.175288,0,0,0.180812,-235.183,-578.041)">
                        <path d="M1691.28,3351.12L1758.19,3550.62L1825.12,3351.12L1895.9,3351.12L1800.75,3616.25L1715.26,3616.25L1620.49,3351.12L1691.28,3351.12Z" style="fill:#e57373;fill-rule:nonzero;"/>
                    </g>
                    <g transform="matrix(0.175288,0,0,0.180812,-235.183,-578.041)">
                        <path d="M1691.28,3351.12L1758.19,3550.62L1825.12,3351.12L1895.9,3351.12L1800.75,3616.25L1715.26,3616.25L1620.49,3351.12L1691.28,3351.12Z" style="fill:#e57373;fill-rule:nonzero;"/>
                    </g>
                    <g transform="matrix(0.175288,0,0,0.180812,-102.019,-577.905)">
                        <g>
                            <path d="M727.733,3347C753.521,3347 776.923,3352.81 797.94,3364.44C818.957,3376.06 835.526,3392.19 847.646,3412.81C859.767,3433.44 865.827,3456.75 865.827,3482.75C865.827,3508.75 859.702,3532.12 847.453,3552.87C835.204,3573.62 818.571,3589.81 797.553,3601.44C776.536,3613.06 753.263,3618.87 727.733,3618.87C702.203,3618.87 678.929,3613.06 657.912,3601.44C636.895,3589.81 620.262,3573.62 608.013,3552.87C595.764,3532.12 589.639,3508.75 589.639,3482.75C589.639,3456.75 595.764,3433.44 608.013,3412.81C620.262,3392.19 636.895,3376.06 657.912,3364.44C678.929,3352.81 702.203,3347 727.733,3347ZM727.733,3406.62C706.071,3406.62 688.858,3413.44 676.093,3427.06C663.328,3440.69 656.945,3459.25 656.945,3482.75C656.945,3506 663.328,3524.5 676.093,3538.25C688.858,3552 706.071,3558.87 727.733,3558.87C749.137,3558.87 766.286,3552 779.18,3538.25C792.074,3524.5 798.52,3506 798.52,3482.75C798.52,3459.5 792.138,3441 779.373,3427.25C766.608,3413.5 749.395,3406.62 727.733,3406.62Z" style="fill:#ff9d2f;fill-rule:nonzero;"/>
                        </g>
                    </g>
                    <g transform="matrix(0.175288,0,0,0.180812,-102.019,-577.905)">
                        <path d="M727.733,3347C753.521,3347 776.923,3352.81 797.94,3364.44C818.957,3376.06 835.526,3392.19 847.646,3412.81C859.767,3433.44 865.827,3456.75 865.827,3482.75C865.827,3508.75 859.702,3532.12 847.453,3552.87C835.204,3573.62 818.571,3589.81 797.553,3601.44C776.536,3613.06 753.263,3618.87 727.733,3618.87C702.203,3618.87 678.929,3613.06 657.912,3601.44C636.895,3589.81 620.262,3573.62 608.013,3552.87C595.764,3532.12 589.639,3508.75 589.639,3482.75C589.639,3456.75 595.764,3433.44 608.013,3412.81C620.262,3392.19 636.895,3376.06 657.912,3364.44C678.929,3352.81 702.203,3347 727.733,3347ZM727.733,3406.62C706.071,3406.62 688.858,3413.44 676.093,3427.06C663.328,3440.69 656.945,3459.25 656.945,3482.75C656.945,3506 663.328,3524.5 676.093,3538.25C688.858,3552 706.071,3558.87 727.733,3558.87C749.137,3558.87 766.286,3552 779.18,3538.25C792.074,3524.5 798.52,3506 798.52,3482.75C798.52,3459.5 792.138,3441 779.373,3427.25C766.608,3413.5 749.395,3406.62 727.733,3406.62Z" style="fill:#ff9d2f;fill-rule:nonzero;"/>
                    </g>
                </g>
            </g>
        </g>
    </g>
</svg>
