<?xml version="1.0" encoding="UTF-8" standalone="no"?>
<!DOCTYPE svg PUBLIC "-//W3C//DTD SVG 1.1//EN" "http://www.w3.org/Graphics/SVG/1.1/DTD/svg11.dtd">
<svg width="100%" height="100%" viewBox="0 0 418 417" version="1.1" xmlns="http://www.w3.org/2000/svg" xmlns:xlink="http://www.w3.org/1999/xlink" xml:space="preserve" xmlns:serif="http://www.serif.com/" style="fill-rule:evenodd;clip-rule:evenodd;stroke-linecap:round;stroke-linejoin:round;stroke-miterlimit:10;">
    <g transform="matrix(1,0,0,1,-576,0)">
        <g id="pauseButton1" transform="matrix(4.16667,0,0,4.16667,576.709,0)">
            <rect x="0" y="0" width="100" height="100" style="fill:none;"/>
            <clipPath id="_clip1">
                <rect x="0" y="0" width="100" height="100"/>
            </clipPath>
            <g clip-path="url(#_clip1)">
                <g id="pauseButton">
                    <g transform="matrix(-1,0,0,1,120.139,-0.117)">
                        <rect x="60.061" y="8.541" width="0.017" height="83.035" style="fill:none;stroke:#e57373;stroke-width:10px;"/>
                    </g>
                    <g transform="matrix(-1,0,0,1,120.139,-0.117)">
                        <rect x="60.061" y="8.541" width="0.017" height="83.035" style="fill:none;stroke:#e57373;stroke-width:10px;"/>
                    </g>
                    <g transform="matrix(-1,0,0,1,67.075,-0.117)">
                        <g>
                            <rect x="33.517" y="8.541" width="0.041" height="83.035" style="fill:none;stroke:#e57373;stroke-width:10px;"/>
                        </g>
                    </g>
                    <g transform="matrix(-1,0,0,1,67.075,-0.117)">
                        <rect x="33.517" y="8.541" width="0.041" height="83.035" style="fill:none;stroke:#e57373;stroke-width:10px;"/>
                    </g>
                </g>
            </g>
        </g>
    </g>
</svg>
