<?xml version="1.0" encoding="UTF-8" standalone="no"?>
<!DOCTYPE svg PUBLIC "-//W3C//DTD SVG 1.1//EN" "http://www.w3.org/Graphics/SVG/1.1/DTD/svg11.dtd">
<svg width="100%" height="100%" viewBox="0 0 428 428" version="1.1" xmlns="http://www.w3.org/2000/svg" xmlns:xlink="http://www.w3.org/1999/xlink" xml:space="preserve" xmlns:serif="http://www.serif.com/" style="fill-rule:evenodd;clip-rule:evenodd;stroke-linecap:round;stroke-miterlimit:10;">
    <g transform="matrix(1,0,0,1,3,3)">
        <g id="playButton" transform="matrix(4.16667,0,0,4.16667,0,0)">
            <rect x="0" y="0" width="100" height="100" style="fill:none;"/>
            <clipPath id="_clip1">
                <rect x="0" y="0" width="100" height="100"/>
            </clipPath>
            <g clip-path="url(#_clip1)">
                <g>
                    <g transform="matrix(0,0.871764,0.871764,0,48.2436,48.7072)">
                        <path d="M-42.668,-42.668L42.668,-42.668" style="fill:none;fill-rule:nonzero;stroke:#e57373;stroke-width:11.47px;"/>
                    </g>
                    <g transform="matrix(0,0.871764,0.871764,0,48.2436,48.7072)">
                        <path d="M-42.668,-42.668L42.668,-42.668" style="fill:none;fill-rule:nonzero;stroke:#e57373;stroke-width:11.47px;"/>
                    </g>
                </g>
                <g>
                    <g transform="matrix(0.754971,0.435879,0.435879,-0.754971,47.7458,0.456234)">
                        <path d="M-16.358,-24.154L26.243,-24.154L68.844,-24.154L47.543,-61.048L26.243,-97.941" style="fill:none;fill-rule:nonzero;stroke:#e57373;stroke-width:11.47px;stroke-linejoin:round;"/>
                    </g>
                    <g transform="matrix(0.754971,0.435879,0.435879,-0.754971,47.7458,0.456234)">
                        <path d="M-16.358,-24.154L26.243,-24.154L68.844,-24.154L47.543,-61.048L26.243,-97.941" style="fill:none;fill-rule:nonzero;stroke:#e57373;stroke-width:11.47px;stroke-linejoin:round;"/>
                    </g>
                </g>
            </g>
        </g>
    </g>
</svg>
