<?xml version="1.0" encoding="UTF-8" standalone="no"?>
<!DOCTYPE svg PUBLIC "-//W3C//DTD SVG 1.1//EN" "http://www.w3.org/Graphics/SVG/1.1/DTD/svg11.dtd">
<svg width="100%" height="100%" viewBox="0 0 418 417" version="1.1" xmlns="http://www.w3.org/2000/svg" xmlns:xlink="http://www.w3.org/1999/xlink" xml:space="preserve" xmlns:serif="http://www.serif.com/" style="fill-rule:evenodd;clip-rule:evenodd;stroke-linecap:round;stroke-linejoin:round;stroke-miterlimit:10;">
    <g transform="matrix(1,0,0,1,-1744,0)">
        <g id="previousVideoButton1" transform="matrix(4.16667,0,0,4.16667,1744.68,0)">
            <rect x="0" y="0" width="100" height="100" style="fill:none;"/>
            <clipPath id="_clip1">
                <rect x="0" y="0" width="100" height="100"/>
            </clipPath>
            <g clip-path="url(#_clip1)">
                <g id="previousVideoButton">
                    <g transform="matrix(-0.866027,0.499997,-0.499997,-0.866027,56.6438,-5.62986)">
                        <path d="M-16.358,-24.154L26.243,-24.154L68.844,-24.154L47.543,-61.048L26.243,-97.941" style="fill:none;fill-rule:nonzero;stroke:#e57373;stroke-width:10px;"/>
                    </g>
                    <g transform="matrix(-0.866027,0.499997,-0.499997,-0.866027,56.6438,-5.62986)">
                        <path d="M-16.358,-24.154L26.243,-24.154L68.844,-24.154L47.543,-61.048L26.243,-97.941" style="fill:none;fill-rule:nonzero;stroke:#e57373;stroke-width:10px;"/>
                    </g>
                    <g transform="matrix(-0.756853,0.436966,-0.436966,-0.756853,71.22,1.41906)">
                        <g>
                            <path d="M-16.358,-24.154L26.243,-24.154L68.843,-24.155L47.543,-61.047L26.243,-97.941" style="fill:none;fill-rule:nonzero;stroke:#e57373;stroke-width:11.44px;"/>
                        </g>
                    </g>
                    <g transform="matrix(-0.756853,0.436966,-0.436966,-0.756853,71.22,1.41906)">
                        <path d="M-16.358,-24.154L26.243,-24.154L68.843,-24.155L47.543,-61.047L26.243,-97.941" style="fill:none;fill-rule:nonzero;stroke:#e57373;stroke-width:11.44px;"/>
                    </g>
                </g>
            </g>
        </g>
    </g>
</svg>
