<?xml version="1.0" encoding="UTF-8" standalone="no"?>
<!DOCTYPE svg PUBLIC "-//W3C//DTD SVG 1.1//EN" "http://www.w3.org/Graphics/SVG/1.1/DTD/svg11.dtd">
<svg width="100%" height="100%" viewBox="0 0 442 443" version="1.1" xmlns="http://www.w3.org/2000/svg" xmlns:xlink="http://www.w3.org/1999/xlink" xml:space="preserve" xmlns:serif="http://www.serif.com/" style="fill-rule:evenodd;clip-rule:evenodd;stroke-linecap:round;stroke-miterlimit:10;">
    <g transform="matrix(1,0,0,1,-2899,-2298)">
        <g id="settingsVector" transform="matrix(4.16667,0,0,4.16667,2911.68,2305.3)">
            <rect x="0" y="0" width="100" height="100" style="fill:none;"/>
            <clipPath id="_clip1">
                <rect x="0" y="0" width="100" height="100"/>
            </clipPath>
            <g clip-path="url(#_clip1)">
                <g id="settings-Vector" serif:id="settings Vector">
                    <g transform="matrix(1,0,0,1,79.1982,76.5612)">
                        <g>
                            <path d="M0,-53.319L-56.317,-53.319C-62.038,-53.319 -66.675,-48.682 -66.675,-42.962L-66.675,-10.358C-66.675,-4.637 -62.038,0 -56.317,0L0,0C5.721,0 10.358,-4.637 10.358,-10.358L10.358,-42.962C10.358,-48.682 5.721,-53.319 0,-53.319M0,-48.319C2.955,-48.319 5.358,-45.916 5.358,-42.962L5.358,-10.358C5.358,-7.403 2.955,-5 0,-5L-56.317,-5C-59.272,-5 -61.675,-7.403 -61.675,-10.358L-61.675,-42.962C-61.675,-45.916 -59.272,-48.319 -56.317,-48.319L0,-48.319" style="fill:#e57373;fill-rule:nonzero;"/>
                        </g>
                    </g>
                    <g transform="matrix(1,0,0,1,79.1982,76.5612)">
                        <path d="M0,-53.319L-56.317,-53.319C-62.038,-53.319 -66.675,-48.682 -66.675,-42.962L-66.675,-10.358C-66.675,-4.637 -62.038,0 -56.317,0L0,0C5.721,0 10.358,-4.637 10.358,-10.358L10.358,-42.962C10.358,-48.682 5.721,-53.319 0,-53.319M0,-48.319C2.955,-48.319 5.358,-45.916 5.358,-42.962L5.358,-10.358C5.358,-7.403 2.955,-5 0,-5L-56.317,-5C-59.272,-5 -61.675,-7.403 -61.675,-10.358L-61.675,-42.962C-61.675,-45.916 -59.272,-48.319 -56.317,-48.319L0,-48.319" style="fill:#e57373;fill-rule:nonzero;"/>
                    </g>
                    <g transform="matrix(1,0,0,1,19.7085,38.874)">
                        <path d="M0,0L62.662,0" style="fill:none;fill-rule:nonzero;stroke:#ff9d2f;stroke-width:4px;"/>
                    </g>
                    <g transform="matrix(1,0,0,1,19.7085,49.9014)">
                        <path d="M0,0L62.662,0" style="fill:none;fill-rule:nonzero;stroke:#ff9d2f;stroke-width:4px;"/>
                    </g>
                    <g transform="matrix(1,0,0,1,19.7085,60.9287)">
                        <path d="M0,0L62.662,0" style="fill:none;fill-rule:nonzero;stroke:#ff9d2f;stroke-width:4px;"/>
                    </g>
                    <g transform="matrix(1,0,0,1,76.123,42.5638)">
                        <path d="M0,-7.307C0.499,-7.307 0.963,-7.214 1.393,-7.027C1.822,-6.84 2.197,-6.584 2.516,-6.259C2.834,-5.934 3.088,-5.549 3.275,-5.107C3.462,-4.664 3.556,-4.18 3.556,-3.654C3.556,-3.141 3.462,-2.663 3.275,-2.221C3.088,-1.779 2.834,-1.391 2.516,-1.059C2.197,-0.726 1.822,-0.467 1.393,-0.281C0.963,-0.093 0.499,0 0,0C-0.5,0 -0.968,-0.093 -1.404,-0.281C-1.84,-0.467 -2.218,-0.726 -2.537,-1.059C-2.856,-1.391 -3.105,-1.779 -3.286,-2.221C-3.466,-2.663 -3.556,-3.141 -3.556,-3.654C-3.556,-4.18 -3.466,-4.664 -3.286,-5.107C-3.105,-5.549 -2.856,-5.934 -2.537,-6.259C-2.218,-6.584 -1.84,-6.84 -1.404,-7.027C-0.968,-7.214 -0.5,-7.307 0,-7.307Z" style="fill:none;fill-rule:nonzero;stroke:#e57373;stroke-width:4px;stroke-linecap:butt;"/>
                    </g>
                    <g transform="matrix(1,0,0,1,40.7964,53.56)">
                        <path d="M0,-7.308C0.499,-7.308 0.964,-7.214 1.393,-7.028C1.823,-6.841 2.197,-6.585 2.516,-6.259C2.835,-5.934 3.088,-5.55 3.275,-5.108C3.462,-4.664 3.556,-4.18 3.556,-3.655C3.556,-3.142 3.462,-2.664 3.275,-2.222C3.088,-1.779 2.835,-1.392 2.516,-1.059C2.197,-0.727 1.823,-0.468 1.393,-0.281C0.964,-0.094 0.499,0 0,0C-0.5,0 -0.967,-0.094 -1.404,-0.281C-1.84,-0.468 -2.218,-0.727 -2.537,-1.059C-2.856,-1.392 -3.105,-1.779 -3.286,-2.222C-3.466,-2.664 -3.556,-3.142 -3.556,-3.655C-3.556,-4.18 -3.466,-4.664 -3.286,-5.108C-3.105,-5.55 -2.856,-5.934 -2.537,-6.259C-2.218,-6.585 -1.84,-6.841 -1.404,-7.028C-0.967,-7.214 -0.5,-7.308 0,-7.308Z" style="fill:none;fill-rule:nonzero;stroke:#e57373;stroke-width:4px;stroke-linecap:butt;"/>
                    </g>
                    <g transform="matrix(1,0,0,1,62.0522,64.555)">
                        <path d="M0,-7.307C0.499,-7.307 0.963,-7.214 1.393,-7.027C1.823,-6.84 2.197,-6.584 2.516,-6.259C2.834,-5.934 3.088,-5.55 3.275,-5.107C3.462,-4.664 3.556,-4.18 3.556,-3.654C3.556,-3.142 3.462,-2.664 3.275,-2.221C3.088,-1.779 2.834,-1.391 2.516,-1.059C2.197,-0.727 1.823,-0.467 1.393,-0.281C0.963,-0.094 0.499,0 0,0C-0.5,0 -0.967,-0.094 -1.404,-0.281C-1.84,-0.467 -2.218,-0.727 -2.537,-1.059C-2.856,-1.391 -3.105,-1.779 -3.286,-2.221C-3.466,-2.664 -3.556,-3.142 -3.556,-3.654C-3.556,-4.18 -3.466,-4.664 -3.286,-5.107C-3.105,-5.55 -2.856,-5.934 -2.537,-6.259C-2.218,-6.584 -1.84,-6.84 -1.404,-7.027C-0.967,-7.214 -0.5,-7.307 0,-7.307Z" style="fill:none;fill-rule:nonzero;stroke:#e57373;stroke-width:4px;stroke-linecap:butt;"/>
                    </g>
                </g>
            </g>
        </g>
    </g>
</svg>
