<?xml version="1.0" encoding="UTF-8" standalone="no"?>
<!DOCTYPE svg PUBLIC "-//W3C//DTD SVG 1.1//EN" "http://www.w3.org/Graphics/SVG/1.1/DTD/svg11.dtd">
<svg width="100%" height="100%" viewBox="0 0 417 418" version="1.1" xmlns="http://www.w3.org/2000/svg" xmlns:xlink="http://www.w3.org/1999/xlink" xml:space="preserve" xmlns:serif="http://www.serif.com/" style="fill-rule:evenodd;clip-rule:evenodd;stroke-linecap:round;stroke-miterlimit:10;">
    <g transform="matrix(1,0,0,1,-2328,-596)">
        <g id="theaterButton" transform="matrix(4.16667,0,0,4.16667,2328.14,596.813)">
            <rect x="0" y="0" width="100" height="100" style="fill:none;"/>
            <clipPath id="_clip1">
                <rect x="0" y="0" width="100" height="100"/>
            </clipPath>
            <g clip-path="url(#_clip1)">
                <g transform="matrix(1,0,0,1,0.0437536,-2.27374e-13)">
                    <g id="fullscreenButton">
                        <g>
                            <g transform="matrix(0,-1,-1,0,21.9787,62.6424)">
                                <path d="M-12.081,12.081L37.003,12.081" style="fill:none;fill-rule:nonzero;stroke:#e57373;stroke-width:10px;"/>
                            </g>
                            <g transform="matrix(0,-1,-1,0,21.9787,62.6424)">
                                <path d="M-12.081,12.081L37.003,12.081" style="fill:none;fill-rule:nonzero;stroke:#e57373;stroke-width:10px;"/>
                            </g>
                            <g transform="matrix(-1,0,0,1,9.90505,74.7341)">
                                <path d="M-79.985,0L0,0" style="fill:none;fill-rule:nonzero;stroke:#e57373;stroke-width:10px;"/>
                            </g>
                            <g transform="matrix(-1,0,0,1,9.90505,74.7341)">
                                <path d="M-79.985,0L0,0" style="fill:none;fill-rule:nonzero;stroke:#e57373;stroke-width:10px;"/>
                            </g>
                            <g transform="matrix(0,1,1,0,102.182,37.3577)">
                                <path d="M-12.081,-12.081L37.121,-12.081" style="fill:none;fill-rule:nonzero;stroke:#e57373;stroke-width:10px;"/>
                            </g>
                            <g transform="matrix(0,1,1,0,102.182,37.3577)">
                                <path d="M-12.081,-12.081L37.121,-12.081" style="fill:none;fill-rule:nonzero;stroke:#e57373;stroke-width:10px;"/>
                            </g>
                            <g transform="matrix(1,0,0,1,65.9339,25.2659)">
                                <g>
                                    <path d="M-56.123,0L24.16,0" style="fill:none;fill-rule:nonzero;stroke:#e57373;stroke-width:10px;"/>
                                </g>
                            </g>
                            <g transform="matrix(1,0,0,1,65.9339,25.2659)">
                                <path d="M-56.123,0L24.16,0" style="fill:none;fill-rule:nonzero;stroke:#e57373;stroke-width:10px;"/>
                            </g>
                        </g>
                    </g>
                </g>
            </g>
        </g>
    </g>
</svg>
