<?xml version="1.0" encoding="UTF-8" standalone="no"?>
<!DOCTYPE svg PUBLIC "-//W3C//DTD SVG 1.1//EN" "http://www.w3.org/Graphics/SVG/1.1/DTD/svg11.dtd">
<svg width="100%" height="100%" viewBox="0 0 1759 418" version="1.1" xmlns="http://www.w3.org/2000/svg" xmlns:xlink="http://www.w3.org/1999/xlink" xml:space="preserve" xmlns:serif="http://www.serif.com/" style="fill-rule:evenodd;clip-rule:evenodd;stroke-linejoin:round;stroke-miterlimit:2;">
    <g transform="matrix(1,0,0,1,-583,-2888)">
        <g id="titleLogo" transform="matrix(4.16667,0,0,4.16667,583.57,2888.89)">
            <rect x="0" y="0" width="422" height="100" style="fill:none;"/>
            <clipPath id="_clip1">
                <rect x="0" y="0" width="422" height="100"/>
            </clipPath>
            <g clip-path="url(#_clip1)">
                <g id="playButton">
                </g>
                <g>
                    <g transform="matrix(0.232668,0,0,0.24,-124.322,-793.315)">
                        <path d="M727.733,3347C753.521,3347 776.923,3352.81 797.94,3364.44C818.957,3376.06 835.526,3392.19 847.646,3412.81C859.767,3433.44 865.827,3456.75 865.827,3482.75C865.827,3508.75 859.702,3532.12 847.453,3552.87C835.204,3573.62 818.571,3589.81 797.553,3601.44C776.536,3613.06 753.263,3618.87 727.733,3618.87C702.203,3618.87 678.929,3613.06 657.912,3601.44C636.895,3589.81 620.262,3573.62 608.013,3552.87C595.764,3532.12 589.639,3508.75 589.639,3482.75C589.639,3456.75 595.764,3433.44 608.013,3412.81C620.262,3392.19 636.895,3376.06 657.912,3364.44C678.929,3352.81 702.203,3347 727.733,3347ZM727.733,3406.62C706.071,3406.62 688.858,3413.44 676.093,3427.06C663.328,3440.69 656.945,3459.25 656.945,3482.75C656.945,3506 663.328,3524.5 676.093,3538.25C688.858,3552 706.071,3558.87 727.733,3558.87C749.137,3558.87 766.286,3552 779.18,3538.25C792.074,3524.5 798.52,3506 798.52,3482.75C798.52,3459.5 792.138,3441 779.373,3427.25C766.608,3413.5 749.395,3406.62 727.733,3406.62Z" style="fill:#ff9d2f;fill-rule:nonzero;"/>
                    </g>
                    <g transform="matrix(0.232668,0,0,0.24,-124.322,-793.315)">
                        <path d="M727.733,3347C753.521,3347 776.923,3352.81 797.94,3364.44C818.957,3376.06 835.526,3392.19 847.646,3412.81C859.767,3433.44 865.827,3456.75 865.827,3482.75C865.827,3508.75 859.702,3532.12 847.453,3552.87C835.204,3573.62 818.571,3589.81 797.553,3601.44C776.536,3613.06 753.263,3618.87 727.733,3618.87C702.203,3618.87 678.929,3613.06 657.912,3601.44C636.895,3589.81 620.262,3573.62 608.013,3552.87C595.764,3532.12 589.639,3508.75 589.639,3482.75C589.639,3456.75 595.764,3433.44 608.013,3412.81C620.262,3392.19 636.895,3376.06 657.912,3364.44C678.929,3352.81 702.203,3347 727.733,3347ZM727.733,3406.62C706.071,3406.62 688.858,3413.44 676.093,3427.06C663.328,3440.69 656.945,3459.25 656.945,3482.75C656.945,3506 663.328,3524.5 676.093,3538.25C688.858,3552 706.071,3558.87 727.733,3558.87C749.137,3558.87 766.286,3552 779.18,3538.25C792.074,3524.5 798.52,3506 798.52,3482.75C798.52,3459.5 792.138,3441 779.373,3427.25C766.608,3413.5 749.395,3406.62 727.733,3406.62Z" style="fill:#ff9d2f;fill-rule:nonzero;"/>
                    </g>
                </g>
                <g>
                    <g transform="matrix(0.232668,0,0,0.24,-124.322,-793.315)">
                        <path d="M1037.57,3404.37C1055.36,3404.37 1071.29,3408.69 1085.34,3417.31C1099.39,3425.94 1110.48,3438.31 1118.61,3454.44C1126.73,3470.56 1130.79,3489.62 1130.79,3511.62C1130.79,3533.37 1126.73,3552.37 1118.61,3568.62C1110.48,3584.87 1099.39,3597.31 1085.34,3605.94C1071.29,3614.56 1055.36,3618.87 1037.57,3618.87C1021.07,3618.87 1006.88,3615.25 995.019,3608C983.157,3600.75 974.518,3590.87 969.102,3578.37L969.102,3716L902.956,3716L902.956,3407L969.102,3407L969.102,3444.87C974.518,3432.37 983.157,3422.5 995.019,3415.25C1006.88,3408 1021.07,3404.37 1037.57,3404.37ZM1016.29,3460.62C1002.37,3460.62 990.957,3465.19 982.061,3474.31C973.164,3483.44 968.715,3495.87 968.715,3511.62C968.715,3527.12 973.164,3539.5 982.061,3548.75C990.957,3558 1002.37,3562.62 1016.29,3562.62C1030.48,3562.62 1041.89,3558.12 1050.53,3549.12C1059.17,3540.12 1063.49,3527.62 1063.49,3511.62C1063.49,3495.62 1059.17,3483.12 1050.53,3474.12C1041.89,3465.12 1030.48,3460.62 1016.29,3460.62Z" style="fill:#302e91;fill-rule:nonzero;"/>
                    </g>
                    <g transform="matrix(0.232668,0,0,0.24,-124.322,-793.315)">
                        <path d="M1037.57,3404.37C1055.36,3404.37 1071.29,3408.69 1085.34,3417.31C1099.39,3425.94 1110.48,3438.31 1118.61,3454.44C1126.73,3470.56 1130.79,3489.62 1130.79,3511.62C1130.79,3533.37 1126.73,3552.37 1118.61,3568.62C1110.48,3584.87 1099.39,3597.31 1085.34,3605.94C1071.29,3614.56 1055.36,3618.87 1037.57,3618.87C1021.07,3618.87 1006.88,3615.25 995.019,3608C983.157,3600.75 974.518,3590.87 969.102,3578.37L969.102,3716L902.956,3716L902.956,3407L969.102,3407L969.102,3444.87C974.518,3432.37 983.157,3422.5 995.019,3415.25C1006.88,3408 1021.07,3404.37 1037.57,3404.37ZM1016.29,3460.62C1002.37,3460.62 990.957,3465.19 982.061,3474.31C973.164,3483.44 968.715,3495.87 968.715,3511.62C968.715,3527.12 973.164,3539.5 982.061,3548.75C990.957,3558 1002.37,3562.62 1016.29,3562.62C1030.48,3562.62 1041.89,3558.12 1050.53,3549.12C1059.17,3540.12 1063.49,3527.62 1063.49,3511.62C1063.49,3495.62 1059.17,3483.12 1050.53,3474.12C1041.89,3465.12 1030.48,3460.62 1016.29,3460.62Z" style="fill:#302e91;fill-rule:nonzero;"/>
                    </g>
                </g>
                <g>
                    <g transform="matrix(0.232668,0,0,0.24,-124.322,-793.315)">
                        <path d="M1379.9,3407L1379.9,3616.25L1313.37,3616.25L1313.37,3578.37C1307.18,3590.62 1297.96,3600.37 1285.71,3607.62C1273.46,3614.87 1259.21,3618.5 1242.96,3618.5C1218.21,3618.5 1198.55,3610.5 1183.97,3594.5C1169.4,3578.5 1162.12,3556.5 1162.12,3528.5L1162.12,3407L1227.88,3407L1227.88,3520.62C1227.88,3534.87 1231.68,3545.94 1239.29,3553.81C1246.9,3561.69 1257.15,3565.62 1270.04,3565.62C1283.45,3565.62 1294.02,3561.5 1301.76,3553.25C1309.5,3545 1313.37,3533.25 1313.37,3518L1313.37,3407L1379.9,3407Z" style="fill:#302e91;fill-rule:nonzero;"/>
                    </g>
                    <g transform="matrix(0.232668,0,0,0.24,-124.322,-793.315)">
                        <path d="M1379.9,3407L1379.9,3616.25L1313.37,3616.25L1313.37,3578.37C1307.18,3590.62 1297.96,3600.37 1285.71,3607.62C1273.46,3614.87 1259.21,3618.5 1242.96,3618.5C1218.21,3618.5 1198.55,3610.5 1183.97,3594.5C1169.4,3578.5 1162.12,3556.5 1162.12,3528.5L1162.12,3407L1227.88,3407L1227.88,3520.62C1227.88,3534.87 1231.68,3545.94 1239.29,3553.81C1246.9,3561.69 1257.15,3565.62 1270.04,3565.62C1283.45,3565.62 1294.02,3561.5 1301.76,3553.25C1309.5,3545 1313.37,3533.25 1313.37,3518L1313.37,3407L1379.9,3407Z" style="fill:#302e91;fill-rule:nonzero;"/>
                    </g>
                </g>
                <g>
                    <g transform="matrix(0.232668,0,0,0.24,-124.322,-793.315)">
                        <path d="M1504.06,3404.37C1531.4,3404.37 1553.25,3411 1569.63,3424.25C1586,3437.5 1596.25,3455 1600.38,3476.75L1538.49,3476.75C1536.68,3468.25 1532.62,3461.56 1526.3,3456.69C1519.99,3451.81 1512.06,3449.37 1502.51,3449.37C1495.04,3449.37 1489.36,3450.94 1485.49,3454.06C1481.63,3457.19 1479.69,3461.62 1479.69,3467.37C1479.69,3473.87 1483.24,3478.75 1490.33,3482C1497.42,3485.25 1508.57,3488.5 1523.79,3491.75C1540.29,3495.5 1553.83,3499.31 1564.4,3503.19C1574.98,3507.06 1584.13,3513.37 1591.87,3522.12C1599.61,3530.87 1603.47,3542.62 1603.47,3557.37C1603.47,3569.37 1600.12,3580 1593.42,3589.25C1586.71,3598.5 1577.04,3605.75 1564.4,3611C1551.77,3616.25 1536.81,3618.87 1519.53,3618.87C1490.39,3618.87 1467.06,3612.62 1449.52,3600.12C1431.98,3587.62 1421.28,3569.75 1417.41,3546.5L1481.24,3546.5C1482.27,3555.5 1486.2,3562.37 1493.04,3567.12C1499.87,3571.87 1508.7,3574.25 1519.53,3574.25C1527.01,3574.25 1532.69,3572.56 1536.55,3569.19C1540.42,3565.81 1542.36,3561.37 1542.36,3555.87C1542.36,3548.62 1538.81,3543.44 1531.72,3540.31C1524.63,3537.19 1513.09,3533.87 1497.1,3530.37C1481.11,3527.12 1467.96,3523.62 1457.64,3519.87C1447.33,3516.12 1438.43,3510.06 1430.95,3501.69C1423.47,3493.31 1419.74,3481.87 1419.74,3467.37C1419.74,3448.62 1427.08,3433.44 1441.78,3421.81C1456.48,3410.19 1477.24,3404.37 1504.06,3404.37Z" style="fill:#302e91;fill-rule:nonzero;"/>
                    </g>
                    <g transform="matrix(0.232668,0,0,0.24,-124.322,-793.315)">
                        <path d="M1504.06,3404.37C1531.4,3404.37 1553.25,3411 1569.63,3424.25C1586,3437.5 1596.25,3455 1600.38,3476.75L1538.49,3476.75C1536.68,3468.25 1532.62,3461.56 1526.3,3456.69C1519.99,3451.81 1512.06,3449.37 1502.51,3449.37C1495.04,3449.37 1489.36,3450.94 1485.49,3454.06C1481.63,3457.19 1479.69,3461.62 1479.69,3467.37C1479.69,3473.87 1483.24,3478.75 1490.33,3482C1497.42,3485.25 1508.57,3488.5 1523.79,3491.75C1540.29,3495.5 1553.83,3499.31 1564.4,3503.19C1574.98,3507.06 1584.13,3513.37 1591.87,3522.12C1599.61,3530.87 1603.47,3542.62 1603.47,3557.37C1603.47,3569.37 1600.12,3580 1593.42,3589.25C1586.71,3598.5 1577.04,3605.75 1564.4,3611C1551.77,3616.25 1536.81,3618.87 1519.53,3618.87C1490.39,3618.87 1467.06,3612.62 1449.52,3600.12C1431.98,3587.62 1421.28,3569.75 1417.41,3546.5L1481.24,3546.5C1482.27,3555.5 1486.2,3562.37 1493.04,3567.12C1499.87,3571.87 1508.7,3574.25 1519.53,3574.25C1527.01,3574.25 1532.69,3572.56 1536.55,3569.19C1540.42,3565.81 1542.36,3561.37 1542.36,3555.87C1542.36,3548.62 1538.81,3543.44 1531.72,3540.31C1524.63,3537.19 1513.09,3533.87 1497.1,3530.37C1481.11,3527.12 1467.96,3523.62 1457.64,3519.87C1447.33,3516.12 1438.43,3510.06 1430.95,3501.69C1423.47,3493.31 1419.74,3481.87 1419.74,3467.37C1419.74,3448.62 1427.08,3433.44 1441.78,3421.81C1456.48,3410.19 1477.24,3404.37 1504.06,3404.37Z" style="fill:#302e91;fill-rule:nonzero;"/>
                    </g>
                </g>
                <g>
                    <g transform="matrix(0.232668,0,0,0.24,-124.322,-793.315)">
                        <path d="M1691.28,3351.12L1758.19,3550.62L1825.12,3351.12L1895.9,3351.12L1800.75,3616.25L1715.26,3616.25L1620.49,3351.12L1691.28,3351.12Z" style="fill:#e57373;fill-rule:nonzero;"/>
                    </g>
                    <g transform="matrix(0.232668,0,0,0.24,-124.322,-793.315)">
                        <path d="M1691.28,3351.12L1758.19,3550.62L1825.12,3351.12L1895.9,3351.12L1800.75,3616.25L1715.26,3616.25L1620.49,3351.12L1691.28,3351.12Z" style="fill:#e57373;fill-rule:nonzero;"/>
                    </g>
                </g>
                <g>
                    <g transform="matrix(0.232668,0,0,0.24,-124.322,-793.315)">
                        <path d="M1915.24,3348.12C1915.24,3338.37 1918.85,3330.31 1926.07,3323.94C1933.29,3317.56 1942.83,3314.37 1954.69,3314.37C1966.56,3314.37 1976.1,3317.56 1983.32,3323.94C1990.54,3330.31 1994.15,3338.37 1994.15,3348.12C1994.15,3357.62 1990.54,3365.56 1983.32,3371.94C1976.1,3378.31 1966.56,3381.5 1954.69,3381.5C1942.83,3381.5 1933.29,3378.31 1926.07,3371.94C1918.85,3365.56 1915.24,3357.62 1915.24,3348.12ZM1987.57,3407L1987.57,3616.25L1921.43,3616.25L1921.43,3407L1987.57,3407Z" style="fill:#302e91;fill-rule:nonzero;"/>
                    </g>
                    <g transform="matrix(0.232668,0,0,0.24,-124.322,-793.315)">
                        <path d="M1915.24,3348.12C1915.24,3338.37 1918.85,3330.31 1926.07,3323.94C1933.29,3317.56 1942.83,3314.37 1954.69,3314.37C1966.56,3314.37 1976.1,3317.56 1983.32,3323.94C1990.54,3330.31 1994.15,3338.37 1994.15,3348.12C1994.15,3357.62 1990.54,3365.56 1983.32,3371.94C1976.1,3378.31 1966.56,3381.5 1954.69,3381.5C1942.83,3381.5 1933.29,3378.31 1926.07,3371.94C1918.85,3365.56 1915.24,3357.62 1915.24,3348.12ZM1987.57,3407L1987.57,3616.25L1921.43,3616.25L1921.43,3407L1987.57,3407Z" style="fill:#302e91;fill-rule:nonzero;"/>
                    </g>
                </g>
                <g>
                    <g transform="matrix(0.232668,0,0,0.24,-124.322,-793.315)">
                        <path d="M2115.22,3404.37C2131.72,3404.37 2145.91,3408 2157.77,3415.25C2169.63,3422.5 2178.27,3432.37 2183.68,3444.87L2183.68,3338.75L2249.83,3338.75L2249.83,3616.25L2183.68,3616.25L2183.68,3578.37C2178.27,3590.87 2169.63,3600.75 2157.77,3608C2145.91,3615.25 2131.72,3618.87 2115.22,3618.87C2097.43,3618.87 2081.5,3614.56 2067.45,3605.94C2053.39,3597.31 2042.3,3584.87 2034.18,3568.62C2026.06,3552.37 2022,3533.37 2022,3511.62C2022,3489.62 2026.06,3470.56 2034.18,3454.44C2042.3,3438.31 2053.39,3425.94 2067.45,3417.31C2081.5,3408.69 2097.43,3404.37 2115.22,3404.37ZM2136.49,3460.62C2122.31,3460.62 2110.9,3465.12 2102.26,3474.12C2093.62,3483.12 2089.3,3495.62 2089.3,3511.62C2089.3,3527.62 2093.62,3540.12 2102.26,3549.12C2110.9,3558.12 2122.31,3562.62 2136.49,3562.62C2150.42,3562.62 2161.83,3558 2170.73,3548.75C2179.62,3539.5 2184.07,3527.12 2184.07,3511.62C2184.07,3495.87 2179.62,3483.44 2170.73,3474.31C2161.83,3465.19 2150.42,3460.62 2136.49,3460.62Z" style="fill:#302e91;fill-rule:nonzero;"/>
                    </g>
                    <g transform="matrix(0.232668,0,0,0.24,-124.322,-793.315)">
                        <path d="M2115.22,3404.37C2131.72,3404.37 2145.91,3408 2157.77,3415.25C2169.63,3422.5 2178.27,3432.37 2183.68,3444.87L2183.68,3338.75L2249.83,3338.75L2249.83,3616.25L2183.68,3616.25L2183.68,3578.37C2178.27,3590.87 2169.63,3600.75 2157.77,3608C2145.91,3615.25 2131.72,3618.87 2115.22,3618.87C2097.43,3618.87 2081.5,3614.56 2067.45,3605.94C2053.39,3597.31 2042.3,3584.87 2034.18,3568.62C2026.06,3552.37 2022,3533.37 2022,3511.62C2022,3489.62 2026.06,3470.56 2034.18,3454.44C2042.3,3438.31 2053.39,3425.94 2067.45,3417.31C2081.5,3408.69 2097.43,3404.37 2115.22,3404.37ZM2136.49,3460.62C2122.31,3460.62 2110.9,3465.12 2102.26,3474.12C2093.62,3483.12 2089.3,3495.62 2089.3,3511.62C2089.3,3527.62 2093.62,3540.12 2102.26,3549.12C2110.9,3558.12 2122.31,3562.62 2136.49,3562.62C2150.42,3562.62 2161.83,3558 2170.73,3548.75C2179.62,3539.5 2184.07,3527.12 2184.07,3511.62C2184.07,3495.87 2179.62,3483.44 2170.73,3474.31C2161.83,3465.19 2150.42,3460.62 2136.49,3460.62Z" style="fill:#302e91;fill-rule:nonzero;"/>
                    </g>
                </g>
            </g>
        </g>
    </g>
</svg>
