<?xml version="1.0" encoding="UTF-8" standalone="no"?>
<!DOCTYPE svg PUBLIC "-//W3C//DTD SVG 1.1//EN" "http://www.w3.org/Graphics/SVG/1.1/DTD/svg11.dtd">
<svg width="100%" height="100%" viewBox="0 0 442 443" version="1.1" xmlns="http://www.w3.org/2000/svg" xmlns:xlink="http://www.w3.org/1999/xlink" xml:space="preserve" xmlns:serif="http://www.serif.com/" style="fill-rule:evenodd;clip-rule:evenodd;stroke-linecap:round;stroke-miterlimit:10;">
    <g transform="matrix(1,0,0,1,-2899,-1102)">
        <g id="trashVector" transform="matrix(4.16667,0,0,4.16667,2911.68,1109.08)">
            <rect x="0" y="0" width="100" height="100" style="fill:none;"/>
            <clipPath id="_clip1">
                <rect x="0" y="0" width="100" height="100"/>
            </clipPath>
            <g clip-path="url(#_clip1)">
                <g id="trashVector1" serif:id="trashVector">
                    <g transform="matrix(0.565255,0.824917,0.824917,-0.565255,53.8722,16.1188)">
                        <path d="M-16.943,-32.149L61.001,-32.149" style="fill:none;fill-rule:nonzero;stroke:#ff9d2f;stroke-width:5px;"/>
                    </g>
                    <g transform="matrix(-0.572668,0.819787,0.819787,0.572668,74.7174,91.2984)">
                        <path d="M-63.856,-33.286L17.351,-33.286" style="fill:none;fill-rule:nonzero;stroke:#e57373;stroke-width:5px;"/>
                    </g>
                    <g transform="matrix(0.467718,-0.883878,-0.883878,-0.467718,36.7337,42.1611)">
                        <path d="M-7.196,11.949L19.842,11.949" style="fill:none;fill-rule:nonzero;stroke:#e57373;stroke-width:5px;"/>
                    </g>
                    <g transform="matrix(0.626922,-0.779082,-0.779082,-0.626922,56.5459,72.3089)">
                        <path d="M-11.41,23.827L49.756,23.827" style="fill:none;fill-rule:nonzero;stroke:#e57373;stroke-width:5px;"/>
                    </g>
                    <g transform="matrix(0.65367,0.75678,0.75678,-0.65367,59.8836,11.8882)">
                        <path d="M-8.882,-19.409L42.412,-19.409" style="fill:none;fill-rule:nonzero;stroke:#ff9d2f;stroke-width:5px;"/>
                    </g>
                    <g transform="matrix(1,0,0,1,63.1924,17.8963)">
                        <path d="M0,69.133L-25.836,69.133L-49.088,0L23.185,0L-0.067,69.133L-25.903,69.133" style="fill:none;fill-rule:nonzero;stroke:#e57373;stroke-width:5px;stroke-linecap:butt;"/>
                    </g>
                    <g transform="matrix(0.565255,0.824917,0.824917,-0.565255,53.8722,16.1188)">
                        <path d="M-16.943,-32.149L61.001,-32.149" style="fill:none;fill-rule:nonzero;stroke:#ff9d2f;stroke-width:5px;"/>
                    </g>
                    <g transform="matrix(-0.572668,0.819787,0.819787,0.572668,74.7174,91.2984)">
                        <path d="M-63.856,-33.286L17.351,-33.286" style="fill:none;fill-rule:nonzero;stroke:#e57373;stroke-width:6px;stroke-linejoin:round;"/>
                    </g>
                    <g transform="matrix(-0.572668,0.819787,0.819787,0.572668,74.7174,91.2984)">
                        <path d="M-63.856,-33.286L17.351,-33.286" style="fill:none;fill-rule:nonzero;stroke:#e57373;stroke-width:6px;stroke-linejoin:round;"/>
                    </g>
                    <g transform="matrix(0.467718,-0.883878,-0.883878,-0.467718,36.7337,42.1611)">
                        <path d="M-7.196,11.949L19.842,11.949" style="fill:none;fill-rule:nonzero;stroke:#e57373;stroke-width:6px;stroke-linejoin:round;"/>
                    </g>
                    <g transform="matrix(0.467718,-0.883878,-0.883878,-0.467718,36.7337,42.1611)">
                        <path d="M-7.196,11.949L19.842,11.949" style="fill:none;fill-rule:nonzero;stroke:#e57373;stroke-width:6px;stroke-linejoin:round;"/>
                    </g>
                    <g transform="matrix(0.626922,-0.779082,-0.779082,-0.626922,56.5459,72.3089)">
                        <path d="M-11.41,23.827L49.756,23.827" style="fill:none;fill-rule:nonzero;stroke:#e57373;stroke-width:6px;stroke-linejoin:round;"/>
                    </g>
                    <g transform="matrix(0.626922,-0.779082,-0.779082,-0.626922,56.5459,72.3089)">
                        <path d="M-11.41,23.827L49.756,23.827" style="fill:none;fill-rule:nonzero;stroke:#e57373;stroke-width:6px;stroke-linejoin:round;"/>
                    </g>
                    <g transform="matrix(0.65367,0.75678,0.75678,-0.65367,59.8836,11.8882)">
                        <path d="M-8.882,-19.409L42.412,-19.409" style="fill:none;fill-rule:nonzero;stroke:#ff9d2f;stroke-width:5px;"/>
                    </g>
                    <g transform="matrix(1,0,0,1,63.1924,17.8963)">
                        <g>
                            <path d="M0,69.133L-25.836,69.133L-49.088,0L23.185,0L-0.067,69.133L-25.903,69.133" style="fill:none;fill-rule:nonzero;stroke:#e57373;stroke-width:6px;stroke-linejoin:round;"/>
                        </g>
                    </g>
                    <g transform="matrix(1,0,0,1,63.1924,17.8963)">
                        <path d="M0,69.133L-25.836,69.133L-49.088,0L23.185,0L-0.067,69.133L-25.903,69.133" style="fill:none;fill-rule:nonzero;stroke:#e57373;stroke-width:6px;stroke-linejoin:round;"/>
                    </g>
                </g>
            </g>
        </g>
    </g>
</svg>
