<?xml version="1.0" encoding="UTF-8" standalone="no"?>
<!DOCTYPE svg PUBLIC "-//W3C//DTD SVG 1.1//EN" "http://www.w3.org/Graphics/SVG/1.1/DTD/svg11.dtd">
<svg width="100%" height="100%" viewBox="0 0 442 442" version="1.1" xmlns="http://www.w3.org/2000/svg" xmlns:xlink="http://www.w3.org/1999/xlink" xml:space="preserve" xmlns:serif="http://www.serif.com/" style="fill-rule:evenodd;clip-rule:evenodd;stroke-linecap:round;stroke-linejoin:round;stroke-miterlimit:10;">
    <g transform="matrix(1,0,0,1,-2899,-1710)">
        <g id="uploadVector" transform="matrix(4.16667,0,0,4.16667,2911.68,1716.55)">
            <rect x="0" y="0" width="100" height="100" style="fill:none;"/>
            <clipPath id="_clip1">
                <rect x="0" y="0" width="100" height="100"/>
            </clipPath>
            <g clip-path="url(#_clip1)">
                <g id="uploadVector1" serif:id="uploadVector">
                    <g transform="matrix(-0.707107,0.707107,0.707107,0.707107,35.7825,44.0048)">
                        <path d="M-31.808,-13.176L5.457,-13.176" style="fill:none;fill-rule:nonzero;stroke:#e57373;stroke-width:6px;"/>
                    </g>
                    <g transform="matrix(-0.707107,0.707107,0.707107,0.707107,35.7825,44.0048)">
                        <path d="M-31.808,-13.176L5.457,-13.176" style="fill:none;fill-rule:nonzero;stroke:#e57373;stroke-width:6px;"/>
                    </g>
                    <g transform="matrix(0.707107,0.707107,0.707107,-0.707107,62.41,6.87212)">
                        <path d="M-5.434,-13.12L31.674,-13.12" style="fill:none;fill-rule:nonzero;stroke:#e57373;stroke-width:6px;"/>
                    </g>
                    <g transform="matrix(0.707107,0.707107,0.707107,-0.707107,62.41,6.87212)">
                        <path d="M-5.434,-13.12L31.674,-13.12" style="fill:none;fill-rule:nonzero;stroke:#e57373;stroke-width:6px;"/>
                    </g>
                    <g transform="matrix(0,-1,-1,0,77.5785,41.3707)">
                        <g>
                            <path d="M-28.455,28.455L28.455,28.455" style="fill:none;fill-rule:nonzero;stroke:#e57373;stroke-width:6px;"/>
                        </g>
                    </g>
                    <g transform="matrix(0,-1,-1,0,77.5785,41.3707)">
                        <path d="M-28.455,28.455L28.455,28.455" style="fill:none;fill-rule:nonzero;stroke:#e57373;stroke-width:6px;"/>
                    </g>
                    <g transform="matrix(1,0,0,1,17.7373,78.7949)">
                        <path d="M0,0L62.662,0" style="fill:none;fill-rule:nonzero;stroke:#ff9d2f;stroke-width:5px;stroke-linejoin:miter;"/>
                    </g>
                </g>
            </g>
        </g>
    </g>
</svg>
