<?xml version="1.0" encoding="UTF-8" standalone="no"?>
<!DOCTYPE svg PUBLIC "-//W3C//DTD SVG 1.1//EN" "http://www.w3.org/Graphics/SVG/1.1/DTD/svg11.dtd">
<svg width="100%" height="100%" viewBox="0 0 442 442" version="1.1" xmlns="http://www.w3.org/2000/svg" xmlns:xlink="http://www.w3.org/1999/xlink" xml:space="preserve" xmlns:serif="http://www.serif.com/" style="fill-rule:evenodd;clip-rule:evenodd;stroke-linecap:round;stroke-linejoin:round;stroke-miterlimit:10;">
    <g transform="matrix(1,0,0,1,-1732,-1710)">
        <g id="userVector" transform="matrix(4.16667,0,0,4.16667,1744.68,1716.55)">
            <rect x="0" y="0" width="100" height="100" style="fill:none;"/>
            <g id="userVector1" serif:id="userVector">
                <g transform="matrix(1,0,0,1,57.9858,19.3991)">
                    <path d="M0,26.182L-15.649,26.182C-20.225,26.182 -23.935,22.473 -23.935,17.897L-23.935,8.286C-23.935,3.709 -20.225,0 -15.649,0L0,0C4.575,0 8.285,3.709 8.285,8.286L8.285,17.897C8.285,22.473 4.575,26.182 0,26.182Z" style="fill:none;fill-rule:nonzero;stroke:#e57373;stroke-width:6px;"/>
                </g>
                <g transform="matrix(1,0,0,1,57.9858,19.3991)">
                    <path d="M0,26.182L-15.649,26.182C-20.225,26.182 -23.935,22.473 -23.935,17.897L-23.935,8.286C-23.935,3.709 -20.225,0 -15.649,0L0,0C4.575,0 8.285,3.709 8.285,8.286L8.285,17.897C8.285,22.473 4.575,26.182 0,26.182Z" style="fill:none;fill-rule:nonzero;stroke:#e57373;stroke-width:6px;"/>
                </g>
                <g transform="matrix(1,0,0,1,82.8906,51.8966)">
                    <g>
                        <path d="M0,32.496C-0.033,32.59 -66.257,32.614 -66.28,32.496C-69.003,18.433 -51.443,-0.118 -33.14,-0.118C-14.837,-0.118 6.041,15.526 0,32.496Z" style="fill:none;fill-rule:nonzero;stroke:#e57373;stroke-width:6px;"/>
                    </g>
                </g>
                <g transform="matrix(1,0,0,1,82.8906,51.8966)">
                    <path d="M0,32.496C-0.033,32.59 -66.257,32.614 -66.28,32.496C-69.003,18.433 -51.443,-0.118 -33.14,-0.118C-14.837,-0.118 6.041,15.526 0,32.496Z" style="fill:none;fill-rule:nonzero;stroke:#e57373;stroke-width:6px;"/>
                </g>
                <g transform="matrix(1,0,0,1,42.9033,32.4902)">
                    <path d="M0,0C0,-0.386 0.072,-0.745 0.217,-1.078C0.361,-1.41 0.559,-1.7 0.811,-1.946C1.062,-2.193 1.36,-2.389 1.703,-2.534C2.045,-2.679 2.419,-2.751 2.827,-2.751C3.223,-2.751 3.592,-2.679 3.935,-2.534C4.277,-2.389 4.577,-2.193 4.834,-1.946C5.091,-1.7 5.292,-1.41 5.437,-1.078C5.581,-0.745 5.653,-0.386 5.653,0C5.653,0.387 5.581,0.749 5.437,1.086C5.292,1.424 5.091,1.717 4.834,1.963C4.577,2.21 4.277,2.402 3.935,2.542C3.592,2.682 3.223,2.751 2.827,2.751C2.419,2.751 2.045,2.682 1.703,2.542C1.36,2.402 1.062,2.21 0.811,1.963C0.559,1.717 0.361,1.424 0.217,1.086C0.072,0.749 0,0.387 0,0" style="fill:#ff9d2f;fill-rule:nonzero;"/>
                </g>
                <g transform="matrix(1,0,0,1,51.7651,32.4902)">
                    <path d="M0,0C0,-0.386 0.072,-0.745 0.217,-1.078C0.361,-1.41 0.56,-1.7 0.811,-1.946C1.063,-2.193 1.36,-2.389 1.703,-2.534C2.045,-2.679 2.42,-2.751 2.827,-2.751C3.223,-2.751 3.592,-2.679 3.935,-2.534C4.277,-2.389 4.577,-2.193 4.834,-1.946C5.092,-1.7 5.292,-1.41 5.437,-1.078C5.581,-0.745 5.653,-0.386 5.653,0C5.653,0.387 5.581,0.749 5.437,1.086C5.292,1.424 5.092,1.717 4.834,1.963C4.577,2.21 4.277,2.402 3.935,2.542C3.592,2.682 3.223,2.751 2.827,2.751C2.42,2.751 2.045,2.682 1.703,2.542C1.36,2.402 1.063,2.21 0.811,1.963C0.56,1.717 0.361,1.424 0.217,1.086C0.072,0.749 0,0.387 0,0" style="fill:#ff9d2f;fill-rule:nonzero;"/>
                </g>
            </g>
        </g>
    </g>
</svg>
