<?xml version="1.0" encoding="UTF-8" standalone="no"?>
<!DOCTYPE svg PUBLIC "-//W3C//DTD SVG 1.1//EN" "http://www.w3.org/Graphics/SVG/1.1/DTD/svg11.dtd">
<svg width="100%" height="100%" viewBox="0 0 442 443" version="1.1" xmlns="http://www.w3.org/2000/svg" xmlns:xlink="http://www.w3.org/1999/xlink" xml:space="preserve" xmlns:serif="http://www.serif.com/" style="fill-rule:evenodd;clip-rule:evenodd;stroke-linecap:round;stroke-linejoin:round;stroke-miterlimit:10;">
    <g transform="matrix(1,0,0,1,-1148,-2298)">
        <g id="videoDeleteVector" transform="matrix(4.16667,0,0,4.16667,1160.79,2305.3)">
            <rect x="0" y="0" width="100" height="100" style="fill:none;"/>
            <clipPath id="_clip1">
                <rect x="0" y="0" width="100" height="100"/>
            </clipPath>
            <g clip-path="url(#_clip1)">
                <g id="videoDeleteVector1" serif:id="videoDeleteVector">
                    <g transform="matrix(1,0,0,1,73.71,82.0006)">
                        <path d="M0,-53.319L-49.498,-53.319C-57.102,-53.319 -63.266,-47.155 -63.266,-39.551L-63.266,-13.768C-63.266,-6.164 -57.102,0 -49.498,0L0,0C7.604,0 13.768,-6.164 13.768,-13.768L13.768,-39.551C13.768,-47.155 7.604,-53.319 0,-53.319M0,-48.319C4.834,-48.319 8.768,-44.386 8.768,-39.551L8.768,-13.768C8.768,-8.933 4.834,-5 0,-5L-49.498,-5C-54.333,-5 -58.266,-8.933 -58.266,-13.768L-58.266,-39.551C-58.266,-44.386 -54.333,-48.319 -49.498,-48.319L0,-48.319" style="fill:#e57373;fill-rule:nonzero;"/>
                    </g>
                    <g transform="matrix(1,0,0,1,73.71,82.0006)">
                        <path d="M0,-53.319L-49.498,-53.319C-57.102,-53.319 -63.266,-47.155 -63.266,-39.551L-63.266,-13.768C-63.266,-6.164 -57.102,0 -49.498,0L0,0C7.604,0 13.768,-6.164 13.768,-13.768L13.768,-39.551C13.768,-47.155 7.604,-53.319 0,-53.319M0,-48.319C4.834,-48.319 8.768,-44.386 8.768,-39.551L8.768,-13.768C8.768,-8.933 4.834,-5 0,-5L-49.498,-5C-54.333,-5 -58.266,-8.933 -58.266,-13.768L-58.266,-39.551C-58.266,-44.386 -54.333,-48.319 -49.498,-48.319L0,-48.319" style="fill:#e57373;fill-rule:nonzero;"/>
                    </g>
                    <g transform="matrix(0,1,1,0,54.3137,55.341)">
                        <path d="M-14.696,-14.696L14.696,-14.696" style="fill:none;fill-rule:nonzero;stroke:#e57373;stroke-width:6px;"/>
                    </g>
                    <g transform="matrix(0,1,1,0,54.3137,55.341)">
                        <path d="M-14.696,-14.696L14.696,-14.696" style="fill:none;fill-rule:nonzero;stroke:#e57373;stroke-width:6px;"/>
                    </g>
                    <g transform="matrix(0.84004,0.542524,0.542524,-0.84004,51.5488,36.8502)">
                        <g>
                            <path d="M-6.143,-8.51L7.379,-8.51L20.902,-8.509L15.339,-20.835L9.777,-33.161" style="fill:none;fill-rule:nonzero;stroke:#ff9d2f;stroke-width:6px;"/>
                        </g>
                    </g>
                    <g transform="matrix(0.84004,0.542524,0.542524,-0.84004,51.5488,36.8502)">
                        <path d="M-6.143,-8.51L7.379,-8.51L20.902,-8.509L15.339,-20.835L9.777,-33.161" style="fill:none;fill-rule:nonzero;stroke:#ff9d2f;stroke-width:6px;"/>
                    </g>
                    <g transform="matrix(0.565257,0.824915,0.824915,-0.565257,82.4468,17.4651)">
                        <path d="M-6.222,-11.806L22.401,-11.806" style="fill:none;fill-rule:nonzero;stroke:#e57373;stroke-width:2px;stroke-linejoin:miter;"/>
                    </g>
                    <g transform="matrix(-0.572654,0.819797,0.819797,0.572654,90.1015,45.0728)">
                        <path d="M-23.449,-12.224L6.372,-12.224" style="fill:none;fill-rule:nonzero;stroke:#ff9d2f;stroke-width:2px;stroke-linejoin:miter;"/>
                    </g>
                    <g transform="matrix(0.467763,-0.883854,-0.883854,-0.467763,76.1529,27.0286)">
                        <path d="M-2.642,4.388L7.286,4.388" style="fill:none;fill-rule:nonzero;stroke:#ff9d2f;stroke-width:2px;stroke-linejoin:miter;"/>
                    </g>
                    <g transform="matrix(0.626913,-0.779089,-0.779089,-0.626913,83.4288,38.0998)">
                        <path d="M-4.19,8.749L18.271,8.75" style="fill:none;fill-rule:nonzero;stroke:#ff9d2f;stroke-width:2px;stroke-linejoin:miter;"/>
                    </g>
                    <g transform="matrix(0.653677,0.756774,0.756774,-0.653677,84.6539,15.9118)">
                        <path d="M-3.262,-7.127L15.575,-7.128" style="fill:none;fill-rule:nonzero;stroke:#e57373;stroke-width:2px;stroke-linejoin:miter;"/>
                    </g>
                    <g transform="matrix(1,0,0,1,85.8691,18.1179)">
                        <path d="M0,25.388L-9.487,25.388L-18.026,0L8.514,0L-0.024,25.388L-9.513,25.388" style="fill:none;fill-rule:nonzero;stroke:#ff9d2f;stroke-width:2px;stroke-linecap:butt;stroke-linejoin:miter;"/>
                    </g>
                </g>
            </g>
        </g>
    </g>
</svg>
