<?xml version="1.0" encoding="UTF-8" standalone="no"?>
<!DOCTYPE svg PUBLIC "-//W3C//DTD SVG 1.1//EN" "http://www.w3.org/Graphics/SVG/1.1/DTD/svg11.dtd">
<svg width="100%" height="100%" viewBox="0 0 443 443" version="1.1" xmlns="http://www.w3.org/2000/svg" xmlns:xlink="http://www.w3.org/1999/xlink" xml:space="preserve" xmlns:serif="http://www.serif.com/" style="fill-rule:evenodd;clip-rule:evenodd;stroke-linecap:round;stroke-linejoin:round;stroke-miterlimit:10;">
    <g transform="matrix(1,0,0,1,13,-2298)">
        <g id="videoVector" transform="matrix(4.16667,0,0,4.16667,0,2305.3)">
            <rect x="0" y="0" width="100" height="100" style="fill:none;"/>
            <g id="videoVector1" serif:id="videoVector">
                <g transform="matrix(1,0,0,1,74.8252,82.8835)">
                    <path d="M0,-53.319L-49.497,-53.319C-57.102,-53.319 -63.266,-47.155 -63.266,-39.551L-63.266,-13.767C-63.266,-6.164 -57.102,0 -49.497,0L0,0C7.604,0 13.769,-6.164 13.769,-13.767L13.769,-39.551C13.769,-47.155 7.604,-53.319 0,-53.319M0,-48.319C4.835,-48.319 8.769,-44.385 8.769,-39.551L8.769,-13.767C8.769,-8.933 4.835,-5 0,-5L-49.497,-5C-54.332,-5 -58.266,-8.933 -58.266,-13.767L-58.266,-39.551C-58.266,-44.385 -54.332,-48.319 -49.497,-48.319L0,-48.319" style="fill:#e57373;fill-rule:nonzero;"/>
                </g>
                <g transform="matrix(1,0,0,1,74.8252,82.8835)">
                    <path d="M0,-53.319L-49.497,-53.319C-57.102,-53.319 -63.266,-47.155 -63.266,-39.551L-63.266,-13.767C-63.266,-6.164 -57.102,0 -49.497,0L0,0C7.604,0 13.769,-6.164 13.769,-13.767L13.769,-39.551C13.769,-47.155 7.604,-53.319 0,-53.319M0,-48.319C4.835,-48.319 8.769,-44.385 8.769,-39.551L8.769,-13.767C8.769,-8.933 4.835,-5 0,-5L-49.497,-5C-54.332,-5 -58.266,-8.933 -58.266,-13.767L-58.266,-39.551C-58.266,-44.385 -54.332,-48.319 -49.497,-48.319L0,-48.319" style="fill:#e57373;fill-rule:nonzero;"/>
                </g>
                <g transform="matrix(0,1,1,0,55.4294,56.2243)">
                    <path d="M-14.696,-14.696L14.696,-14.696" style="fill:none;fill-rule:nonzero;stroke:#e57373;stroke-width:6px;"/>
                </g>
                <g transform="matrix(0,1,1,0,55.4294,56.2243)">
                    <path d="M-14.696,-14.696L14.696,-14.696" style="fill:none;fill-rule:nonzero;stroke:#e57373;stroke-width:6px;"/>
                </g>
                <g transform="matrix(0.84004,0.542524,0.542524,-0.84004,52.665,37.733)">
                    <g>
                        <path d="M-6.143,-8.51L7.379,-8.51L20.902,-8.51L15.339,-20.836L9.777,-33.161" style="fill:none;fill-rule:nonzero;stroke:#ff9d2f;stroke-width:6px;"/>
                    </g>
                </g>
                <g transform="matrix(0.84004,0.542524,0.542524,-0.84004,52.665,37.733)">
                    <path d="M-6.143,-8.51L7.379,-8.51L20.902,-8.51L15.339,-20.836L9.777,-33.161" style="fill:none;fill-rule:nonzero;stroke:#ff9d2f;stroke-width:6px;"/>
                </g>
            </g>
        </g>
    </g>
</svg>
