<?xml version="1.0" standalone="no"?>
<!DOCTYPE svg PUBLIC "-//W3C//DTD SVG 20010904//EN"
 "http://www.w3.org/TR/2001/REC-SVG-20010904/DTD/svg10.dtd">
<svg version="1.0" xmlns="http://www.w3.org/2000/svg"
 width="836.000000pt" height="836.000000pt" viewBox="0 0 836.000000 836.000000"
 preserveAspectRatio="xMidYMid meet">
<metadata>
Created by potrace 1.14, written by Peter Selinger 2001-2017
</metadata>
<g transform="translate(0.000000,836.000000) scale(0.100000,-0.100000)"
fill="#000000" stroke="none">
<path d="M1990 6220 c-219 -19 -469 -89 -679 -190 -509 -246 -879 -686 -1040
-1235 -105 -361 -107 -825 -5 -1205 91 -339 282 -661 535 -905 356 -343 811
-533 1319 -552 695 -25 1306 255 1698 779 216 289 347 616 393 983 17 131 17
442 0 575 -80 638 -425 1173 -958 1487 -362 212 -796 303 -1263 263z m452
-915 c161 -30 313 -102 429 -202 178 -154 284 -343 341 -606 19 -87 22 -133
21 -317 0 -187 -3 -228 -22 -315 -120 -527 -481 -825 -999 -825 -307 0 -526
84 -717 275 -114 114 -178 212 -233 358 -56 148 -73 248 -79 462 -4 163 -2
208 16 317 81 492 389 804 856 867 92 13 282 6 387 -14z"/>
<path d="M4150 6176 c0 -2 192 -556 426 -1232 234 -676 446 -1285 469 -1354
24 -69 78 -224 120 -345 42 -121 83 -238 90 -260 7 -22 52 -152 100 -290 48
-137 107 -310 132 -382 l46 -133 627 0 628 0 20 58 c11 31 38 109 60 172 22
63 72 205 110 315 38 110 129 369 200 575 72 206 163 467 202 580 39 113 91
261 115 330 68 196 207 595 285 820 40 113 75 216 80 230 4 14 74 214 155 445
81 231 151 432 155 448 l9 27 -521 -2 -521 -3 -38 -115 c-20 -63 -89 -277
-154 -475 -64 -198 -125 -385 -135 -415 -10 -30 -69 -210 -130 -400 -61 -190
-120 -370 -130 -400 -11 -30 -72 -217 -136 -415 -64 -198 -147 -452 -183 -565
l-67 -205 -93 285 c-201 618 -322 991 -431 1325 -38 116 -99 302 -135 415
-170 522 -197 607 -255 783 l-62 187 -519 0 c-285 0 -519 -2 -519 -4z"/>
</g>
</svg>
